<svg xmlns="http://www.w3.org/2000/svg" viewBox="0 0 135.75 23.05"><defs><style>.cls-1{fill:#fff;}</style></defs><title>Recurso 3</title><g id="Capa_2" data-name="Capa 2"><g id="Capa_1-2" data-name="Capa 1"><path class="cls-1" d="M0,12.84H14S30.81,0,50.54,0C17.4,0,0,12.84,0,12.84Z"/><polygon class="cls-1" points="20.33 13.22 26.7 13.22 26.7 22.53 31.74 22.53 31.74 13.22 37.93 13.22 37.93 9.22 20.33 9.22 20.33 13.22"/><polygon class="cls-1" points="105.7 18.49 100.61 9.05 96.29 9.07 96.29 22.53 100.23 22.53 100.23 16.71 103.33 22.71 107.43 22.71 110.94 16.27 110.94 22.53 114.87 22.53 114.87 9.07 110.54 9.07 105.7 18.49"/><path class="cls-1" d="M70.42,18.18a4.92,4.92,0,0,0,.73-.3c1.18-.52,3.09-1.68,3.09-3.63,0-4.78-3.09-5.18-3.09-5.18H57.71V22.53h3.93V18.18h3.88l3.79,4.38h5.33L70.3,18.23Zm-1.47-3H61.64V12.4h6.89a1.42,1.42,0,0,1,1.16,1.4A1.45,1.45,0,0,1,69,15.14Z"/><polygon class="cls-1" points="39.47 22.53 54.25 22.53 54.25 19.36 43.56 19.36 43.56 17.38 54.25 17.38 54.25 14.22 43.56 14.22 43.56 12.24 54.25 12.24 54.25 9.07 39.47 9.07 39.47 22.53"/><path class="cls-1" d="M89.84,17.86l0,0s0,2-5,2c-3.08,0-4.2-.61-4.6-1.08V8.93H76.32V19.18a3,3,0,0,0,1.76,2.73,17.94,17.94,0,0,0,7,1.14,17.62,17.62,0,0,0,7-1.13,2.94,2.94,0,0,0,1.75-2.72V8.93h-4Z"/><path class="cls-1" d="M131.19,9.13H121.9a4.56,4.56,0,0,0-4.56,4.56v4.64a4.56,4.56,0,0,0,4.56,4.56h9.29a4.56,4.56,0,0,0,4.56-4.56V13.69A4.56,4.56,0,0,0,131.19,9.13Zm.3,9.2a.3.3,0,0,1-.3.3H121.9a.31.31,0,0,1-.3-.3V13.69a.3.3,0,0,1,.3-.3h9.29a.29.29,0,0,1,.3.3Z"/></g></g></svg>