<svg xmlns="http://www.w3.org/2000/svg" viewBox="0 0 91.16 15.48"><defs><style>.cls-1{fill:#d8221e;}.cls-2{fill:#008e62;}</style></defs><title>Recurso 2</title><g id="Capa_2" data-name="Capa 2"><g id="Capa_1-2" data-name="Capa 1"><path class="cls-1" d="M0,8.62H9.38S20.69,0,33.94,0C11.69,0,0,8.62,0,8.62Z"/><polygon class="cls-2" points="13.65 8.88 17.93 8.88 17.93 15.13 21.31 15.13 21.31 8.88 25.47 8.88 25.47 6.19 13.65 6.19 13.65 8.88"/><polygon class="cls-2" points="70.98 12.42 67.56 6.08 64.66 6.09 64.66 15.13 67.31 15.13 67.31 11.22 69.39 15.25 72.14 15.25 74.5 10.93 74.5 15.13 77.14 15.13 77.14 6.09 74.23 6.09 70.98 12.42"/><path class="cls-2" d="M47.29,12.21a3.89,3.89,0,0,0,.49-.2c.79-.35,2.07-1.13,2.07-2.44,0-3.21-2.07-3.48-2.07-3.48h-9v9h2.64V12.21H44l2.54,2.94h3.58l-2.91-2.91Zm-1-2H41.39V8.33H46a1,1,0,0,1,.78.94A1,1,0,0,1,46.3,10.17Z"/><polygon class="cls-2" points="26.5 15.13 36.43 15.13 36.43 13 29.25 13 29.25 11.67 36.43 11.67 36.43 9.55 29.25 9.55 29.25 8.22 36.43 8.22 36.43 6.09 26.5 6.09 26.5 15.13"/><path class="cls-2" d="M60.33,12h0s0,1.33-3.33,1.33c-2.07,0-2.82-.41-3.09-.73V6H51.25v6.88a2,2,0,0,0,1.19,1.83,12,12,0,0,0,4.7.77,11.86,11.86,0,0,0,4.67-.76A2,2,0,0,0,63,12.89V6H60.33Z"/><path class="cls-2" d="M88.1,6.13H81.86A3.06,3.06,0,0,0,78.8,9.19v3.12a3.06,3.06,0,0,0,3.06,3.06H88.1a3.07,3.07,0,0,0,3.06-3.06V9.19A3.07,3.07,0,0,0,88.1,6.13Zm.2,6.18a.2.2,0,0,1-.2.2H81.86a.2.2,0,0,1-.2-.2V9.19a.2.2,0,0,1,.2-.2H88.1a.2.2,0,0,1,.2.2Z"/></g></g></svg>