<svg xmlns="http://www.w3.org/2000/svg" xmlns:xlink="http://www.w3.org/1999/xlink" viewBox="0 0 30 30.15"><defs><style>.cls-1{fill:none;}.cls-2{isolation:isolate;}.cls-3{opacity:0.7;mix-blend-mode:multiply;}.cls-4{clip-path:url(#clip-path);}.cls-5{fill:#415365;}.cls-6{clip-path:url(#clip-path-2);}.cls-7{fill:#fff;}</style><clipPath id="clip-path" transform="translate(-3.1 -3.02)"><rect class="cls-1" x="2.1" y="2.03" width="32" height="32.14"/></clipPath><clipPath id="clip-path-2" transform="translate(-3.1 -3.02)"><rect class="cls-1" width="36.19" height="36.19"/></clipPath></defs><title>cita</title><g class="cls-2"><g id="Capa_2" data-name="Capa 2"><g id="Capa_1-2" data-name="Capa 1"><g class="cls-3"><g class="cls-4"><path class="cls-5" d="M18.1,33.17A15.08,15.08,0,1,0,3.1,18.1a15,15,0,0,0,15,15.07" transform="translate(-3.1 -3.02)"/></g></g><g class="cls-6"><path class="cls-7" d="M16.2,13.3l1,1.54a5,5,0,0,0-2.26,3.26c1.67,0,2.4.81,2.4,2.48a2.32,2.32,0,0,1-2.58,2.58c-1.77,0-2.44-1.17-2.44-3.44A7.09,7.09,0,0,1,16.2,13.3m6.42,0,.95,1.54a4.92,4.92,0,0,0-2.26,3.26c1.67,0,2.4.81,2.4,2.48a2.32,2.32,0,0,1-2.58,2.58c-1.68,0-2.45-1.17-2.45-3.44a7.08,7.08,0,0,1,3.94-6.42" transform="translate(-3.1 -3.02)"/></g></g></g></g></svg>