<svg xmlns="http://www.w3.org/2000/svg" xmlns:xlink="http://www.w3.org/1999/xlink" viewBox="0 0 78.95 78.95"><defs><style>.cls-1{fill:none;}.cls-2{clip-path:url(#clip-path);}.cls-3{fill:#fff;}</style><clipPath id="clip-path" transform="translate(0 -0.06)"><rect class="cls-1" x="0.02" width="78.99" height="78.99"/></clipPath></defs><title>copo</title><g id="Capa_2" data-name="Capa 2"><g id="Capa_1-2" data-name="Capa 1"><g class="cls-2"><path class="cls-3" d="M39.48,3.7A35.84,35.84,0,1,0,75.31,39.54,35.87,35.87,0,0,0,39.48,3.7m0,75.31A39.48,39.48,0,1,1,79,39.54,39.51,39.51,0,0,1,39.48,79" transform="translate(0 -0.06)"/><path class="cls-3" d="M39.65,8.82A30.78,30.78,0,1,0,70.43,39.6,30.82,30.82,0,0,0,39.65,8.82m0,65.2A34.42,34.42,0,1,1,74.07,39.6,34.46,34.46,0,0,1,39.65,74" transform="translate(0 -0.06)"/><path class="cls-3" d="M39.48,67.06a1.83,1.83,0,0,1-1.82-1.82V49.49a1.82,1.82,0,1,1,3.63,0V65.24a1.82,1.82,0,0,1-1.81,1.82" transform="translate(0 -0.06)"/><path class="cls-3" d="M39.48,32.26a1.82,1.82,0,0,1-1.82-1.81V14.68a1.82,1.82,0,1,1,3.63,0V30.44a1.82,1.82,0,0,1-1.81,1.82" transform="translate(0 -0.06)"/><path class="cls-3" d="M30.47,41.36H13.77a1.82,1.82,0,0,1,0-3.63h16.7c1,0,1.31.82,1.31,1.82s-.31,1.81-1.31,1.81" transform="translate(0 -0.06)"/><path class="cls-3" d="M65.28,41.36H48.58a1.82,1.82,0,1,1,0-3.63H65.27a1.82,1.82,0,1,1,0,3.63" transform="translate(0 -0.06)"/><path class="cls-3" d="M44.29,20.86A1.8,1.8,0,0,1,43,20.33l-3.53-3.52-3.53,3.52a1.81,1.81,0,0,1-2.57-2.56L38.18,13a1.87,1.87,0,0,1,2.57,0l4.82,4.82a1.8,1.8,0,0,1,0,2.56,1.76,1.76,0,0,1-1.28.53" transform="translate(0 -0.06)"/><path class="cls-3" d="M39.48,67.06a1.84,1.84,0,0,1-1.29-.53l-4.81-4.81A1.82,1.82,0,0,1,36,59.15l3.53,3.52L43,59.15a1.82,1.82,0,0,1,2.57,2.57l-4.81,4.81a1.85,1.85,0,0,1-1.28.53" transform="translate(0 -0.06)"/><path class="cls-3" d="M60.46,46.17a1.76,1.76,0,0,1-1.28-.53,1.8,1.8,0,0,1,0-2.57l3.52-3.52L59.18,36a1.82,1.82,0,0,1,2.57-2.57l4.81,4.81a1.82,1.82,0,0,1,0,2.57l-4.81,4.81a1.78,1.78,0,0,1-1.29.53" transform="translate(0 -0.06)"/><path class="cls-3" d="M18.59,46.17a1.76,1.76,0,0,1-1.28-.53L12.5,40.83a1.8,1.8,0,0,1,0-2.57l4.81-4.81A1.82,1.82,0,1,1,19.88,36l-3.53,3.53,3.53,3.52a1.82,1.82,0,0,1-1.29,3.1" transform="translate(0 -0.06)"/><path class="cls-3" d="M39.48,32.3a7.29,7.29,0,1,0,7.28,7.29,7.3,7.3,0,0,0-7.28-7.29m0,18.21A10.93,10.93,0,1,1,50.4,39.59,10.94,10.94,0,0,1,39.48,50.51" transform="translate(0 -0.06)"/><path class="cls-3" d="M21.3,59.53A1.81,1.81,0,0,1,20,56.44L31.16,45.3a1.81,1.81,0,1,1,2.57,2.56L22.59,59a1.83,1.83,0,0,1-1.29.54" transform="translate(0 -0.06)"/><path class="cls-3" d="M45.91,34.92a1.82,1.82,0,0,1-1.29-3.1L55.76,20.68a1.82,1.82,0,1,1,2.57,2.57L47.19,34.39a1.74,1.74,0,0,1-1.28.53" transform="translate(0 -0.06)"/><path class="cls-3" d="M33.11,35a1.8,1.8,0,0,1-1.29-.53L20,22.65a1.82,1.82,0,0,1,2.57-2.57l11.8,11.8c.71.72-.11,1-.83,1.76-.34.35,0,1.35-.45,1.35" transform="translate(0 -0.06)"/><path class="cls-3" d="M57.72,59.61a1.8,1.8,0,0,1-1.28-.53L44.63,47.26a1.82,1.82,0,0,1,2.57-2.57L59,56.5a1.8,1.8,0,0,1,0,2.57,1.75,1.75,0,0,1-1.28.54" transform="translate(0 -0.06)"/><path class="cls-3" d="M58.29,29.35a1.81,1.81,0,0,1-1.81-1.81v-5h-5a1.82,1.82,0,0,1,0-3.63h6.81a1.81,1.81,0,0,1,1.82,1.81v6.81a1.82,1.82,0,0,1-1.82,1.81" transform="translate(0 -0.06)"/><path class="cls-3" d="M27.34,60.17H20.53a1.83,1.83,0,0,1-1.82-1.82V51.54a1.82,1.82,0,0,1,3.63,0v5h5a1.82,1.82,0,0,1,0,3.63" transform="translate(0 -0.06)"/><path class="cls-3" d="M58.28,60.17H51.47a1.82,1.82,0,0,1,0-3.63h5v-5a1.82,1.82,0,0,1,3.63,0v6.81a1.82,1.82,0,0,1-1.82,1.82" transform="translate(0 -0.06)"/><path class="cls-3" d="M20.46,29.15a1.82,1.82,0,0,1-1.82-1.81V20.53a1.83,1.83,0,0,1,1.82-1.82h6.81a1.82,1.82,0,0,1,0,3.63h-5v5a1.8,1.8,0,0,1-1.81,1.81" transform="translate(0 -0.06)"/></g></g></g></svg>