<svg xmlns="http://www.w3.org/2000/svg" xmlns:xlink="http://www.w3.org/1999/xlink" viewBox="0 0 78.95 78.95"><defs><style>.cls-1,.cls-5{fill:none;}.cls-2{clip-path:url(#clip-path);}.cls-3{fill:#fff;}.cls-4{clip-path:url(#clip-path-2);}.cls-5{stroke:#fff;stroke-linecap:round;stroke-linejoin:round;stroke-width:2.09px;}</style><clipPath id="clip-path" transform="translate(0 -0.06)"><rect class="cls-1" x="0.02" width="78.99" height="78.99"/></clipPath><clipPath id="clip-path-2" transform="translate(0 -0.06)"><rect class="cls-1" x="17.11" y="20.85" width="45.08" height="35.87"/></clipPath></defs><title>Idiomas</title><g id="Capa_2" data-name="Capa 2"><g id="Capa_1-2" data-name="Capa 1"><g class="cls-2"><path class="cls-3" d="M39.48,3.7A35.84,35.84,0,1,0,75.31,39.54,35.87,35.87,0,0,0,39.48,3.7m0,75.31A39.48,39.48,0,1,1,79,39.54,39.51,39.51,0,0,1,39.48,79" transform="translate(0 -0.06)"/><path class="cls-3" d="M39.65,8.82A30.78,30.78,0,1,0,70.43,39.6,30.82,30.82,0,0,0,39.65,8.82m0,65.2A34.42,34.42,0,1,1,74.07,39.6,34.46,34.46,0,0,1,39.65,74" transform="translate(0 -0.06)"/></g><g class="cls-4"><path class="cls-5" d="M39.66,37.81v0Zm0-14.48S32.78,20,28,23.07A19.53,19.53,0,0,1,18,25.89V55.8A19.53,19.53,0,0,0,28,53c4.8-3,11.67.27,11.67.27s6.88-3.32,11.67-.27a19.53,19.53,0,0,0,10,2.82V25.89a19.53,19.53,0,0,1-10-2.82C46.53,20,39.66,23.33,39.66,23.33Z" transform="translate(0 -0.06)"/><path class="cls-3" d="M51.3,33.78a2.59,2.59,0,1,0-2.59-2.59,2.59,2.59,0,0,0,2.59,2.59" transform="translate(0 -0.06)"/></g><polygon class="cls-3" points="53.85 44.73 53.85 35.33 46.51 35.33 46.51 37.07 48.74 37.07 48.74 44.73 46.52 44.73 46.52 46.49 56.07 46.49 56.07 44.73 53.85 44.73"/></g></g></svg>