<svg xmlns="http://www.w3.org/2000/svg" xmlns:xlink="http://www.w3.org/1999/xlink" viewBox="0 0 78.88 78.88"><defs><style>.cls-1,.cls-4,.cls-5,.cls-6{fill:none;}.cls-2{clip-path:url(#clip-path);}.cls-3{fill:#fff;}.cls-4,.cls-5,.cls-6{stroke:#fff;}.cls-4{stroke-miterlimit:10;}.cls-4,.cls-5{stroke-width:2.55px;}.cls-5,.cls-6{stroke-linejoin:round;}.cls-6{stroke-linecap:round;stroke-width:2.43px;}</style><clipPath id="clip-path" transform="translate(0 -0.06)"><rect class="cls-1" x="0.02" width="78.92" height="78.92"/></clipPath></defs><title>Publicaciones</title><g id="Capa_2" data-name="Capa 2"><g id="Capa_1-2" data-name="Capa 1"><g class="cls-2"><path class="cls-3" d="M39.44,3.7a35.8,35.8,0,1,0,35.8,35.8A35.84,35.84,0,0,0,39.44,3.7m0,75.24A39.44,39.44,0,1,1,78.88,39.5,39.48,39.48,0,0,1,39.44,78.94" transform="translate(0 -0.06)"/><path class="cls-3" d="M39.61,8.81A30.75,30.75,0,1,0,70.37,39.56,30.79,30.79,0,0,0,39.61,8.81m0,65.14A34.39,34.39,0,1,1,74,39.56,34.43,34.43,0,0,1,39.61,74" transform="translate(0 -0.06)"/><polyline class="cls-4" points="21.35 66.24 21.35 27.38 50.17 27.38 55.01 32.22 59.85 37.06 59.85 64.87"/><polygon class="cls-5" points="50.17 27.38 59.85 37.06 50.17 37.06 50.17 27.38"/><line class="cls-6" x1="28.84" y1="43.37" x2="51.95" y2="43.37"/><line class="cls-6" x1="28.84" y1="50.4" x2="51.95" y2="50.4"/><line class="cls-6" x1="28.84" y1="57.42" x2="51.95" y2="57.42"/></g></g></g></svg>