<svg xmlns="http://www.w3.org/2000/svg" xmlns:xlink="http://www.w3.org/1999/xlink" viewBox="0 0 79.02 79.02"><defs><style>.cls-1{fill:none;}.cls-2{clip-path:url(#clip-path);}.cls-3{fill:#fff;}</style><clipPath id="clip-path"><rect class="cls-1" x="0.05" y="0.05" width="78.92" height="78.92"/></clipPath></defs><title>Recurso 2</title><g id="Capa_2" data-name="Capa 2"><g id="Capa_1-2" data-name="Capa 1"><g class="cls-2"><path class="cls-3" d="M39.49,79A40.84,40.84,0,0,1,22.11,75.2a1.89,1.89,0,1,1,1.59-3.42,37.72,37.72,0,0,0,31.8-.09,1.88,1.88,0,1,1,1.6,3.4A40.93,40.93,0,0,1,39.49,79"/><path class="cls-3" d="M39.54,74.07a34.19,34.19,0,0,1-13.29-2.65,1.89,1.89,0,0,1,1.45-3.48,31,31,0,0,0,23.79,0A1.88,1.88,0,1,1,53,71.38a34.35,34.35,0,0,1-13.41,2.69"/><path class="cls-3" d="M39.6,73.88A1.89,1.89,0,0,1,37.72,72V51.88a1.89,1.89,0,0,1,3.77,0V72a1.89,1.89,0,0,1-1.89,1.89"/><path class="cls-3" d="M73.49,58a1.81,1.81,0,0,1-.79-.17,1.89,1.89,0,0,1-.92-2.51,37.67,37.67,0,0,0-.1-31.8,1.88,1.88,0,1,1,3.41-1.6,41.43,41.43,0,0,1,.11,35A1.88,1.88,0,0,1,73.49,58"/><path class="cls-3" d="M69.68,53.93a1.82,1.82,0,0,1-.72-.15,1.88,1.88,0,0,1-1-2.46,30.92,30.92,0,0,0,0-23.79,1.89,1.89,0,0,1,3.48-1.46,34.71,34.71,0,0,1,0,26.7,1.89,1.89,0,0,1-1.74,1.16"/><path class="cls-3" d="M72,41.3H51.88a1.89,1.89,0,0,1,0-3.77H72a1.89,1.89,0,1,1,0,3.77"/><path class="cls-3" d="M22.72,7.51a1.88,1.88,0,0,1-.8-3.58,41.43,41.43,0,0,1,35-.11,1.89,1.89,0,1,1-1.59,3.42,37.72,37.72,0,0,0-31.8.09,1.76,1.76,0,0,1-.8.18"/><path class="cls-3" d="M26.8,11.26a1.88,1.88,0,0,1-.73-3.62,34.71,34.71,0,0,1,26.7,0,1.89,1.89,0,0,1-1.45,3.48,31,31,0,0,0-23.79,0,1.87,1.87,0,0,1-.73.15"/><path class="cls-3" d="M39.42,29a1.89,1.89,0,0,1-1.89-1.88V7A1.89,1.89,0,1,1,41.3,7V27.14A1.88,1.88,0,0,1,39.42,29"/><path class="cls-3" d="M5.63,58.19a1.88,1.88,0,0,1-1.7-1.09,41.43,41.43,0,0,1-.11-35A1.89,1.89,0,1,1,7.24,23.7a37.72,37.72,0,0,0,.09,31.8,1.88,1.88,0,0,1-1.7,2.69"/><path class="cls-3" d="M9.38,54.1A1.88,1.88,0,0,1,7.64,53a34.71,34.71,0,0,1,0-26.7,1.88,1.88,0,1,1,3.47,1.45,31,31,0,0,0,0,23.79,1.87,1.87,0,0,1-1,2.46,1.91,1.91,0,0,1-.73.15"/><path class="cls-3" d="M27.14,41.49H7a1.89,1.89,0,1,1,0-3.77H27.14a1.89,1.89,0,0,1,0,3.77"/><path class="cls-3" d="M39.42,43.79A4.19,4.19,0,1,1,43.6,39.6a4.2,4.2,0,0,1-4.18,4.19m0-6.24a2,2,0,1,0,2,2.05,2.05,2.05,0,0,0-2-2.05"/><path class="cls-3" d="M31.64,33.58A1.85,1.85,0,0,1,30.31,33l-3.52-3.51a1.89,1.89,0,0,1,2.67-2.67L33,30.37a1.88,1.88,0,0,1-1.33,3.21"/><path class="cls-3" d="M28.19,52.78a1.89,1.89,0,0,1-1.34-3.22l3.52-3.51A1.88,1.88,0,1,1,33,48.71l-3.51,3.52a1.91,1.91,0,0,1-1.33.55"/><path class="cls-3" d="M50.89,52.72a1.91,1.91,0,0,1-1.33-.55l-3.51-3.52A1.88,1.88,0,1,1,48.71,46l3.52,3.51a1.89,1.89,0,0,1-1.34,3.22"/><path class="cls-3" d="M47.32,33.52A1.88,1.88,0,0,1,46,30.31l3.51-3.52a1.89,1.89,0,0,1,2.67,2.67L48.65,33a1.87,1.87,0,0,1-1.33.55"/></g></g></g></svg>