<?xml version="1.0" encoding="utf-8"?>
<!-- Generator: Adobe Illustrator 21.0.2, SVG Export Plug-In . SVG Version: 6.00 Build 0)  -->
<svg version="1.1" id="Layer_1" xmlns="http://www.w3.org/2000/svg" xmlns:xlink="http://www.w3.org/1999/xlink" x="0px" y="0px"
	 viewBox="0 0 775 775" style="enable-background:new 0 0 775 775;" xml:space="preserve">
<style type="text/css">
	.st0{clip-path:url(#SVGID_2_);fill:#FFFFFF;}
</style>
<g>
	<defs>
		<rect id="SVGID_1_" x="0.3" y="0.5" width="774.2" height="774.2"/>
	</defs>
	<clipPath id="SVGID_2_">
		<use xlink:href="#SVGID_1_"  style="overflow:visible;"/>
	</clipPath>
	<path class="st0" d="M387.4,774.7c-108.8,0-213.3-46.2-286.5-126.8c-6.6-7.3-6.1-18.6,1.2-25.2c7.3-6.6,18.6-6.1,25.2,1.2
		C193.8,697.1,288.6,739,387.4,739c193.8,0,351.5-157.7,351.5-351.5S581.2,36.1,387.4,36.1c-99.3,0-194.5,42.3-261,116.1
		c-6.6,7.3-17.9,7.9-25.2,1.3c-7.3-6.6-7.9-17.9-1.3-25.2C173.2,47.1,278,0.5,387.4,0.5c213.4,0,387.1,173.6,387.1,387.1
		S600.9,774.7,387.4,774.7"/>
	<path class="st0" d="M389.1,725.6c-96.7,0-188.9-41.6-253-114.1c-6.5-7.4-5.8-18.6,1.6-25.2c7.4-6.5,18.6-5.8,25.2,1.6
		C220.2,652.8,302.6,690,389.1,690C555.6,690,691,554.6,691,388.1c0-166.5-135.4-301.9-301.9-301.9c-86.5,0-169,37.2-226.4,102.1
		c-6.5,7.4-17.8,8.1-25.2,1.6c-7.4-6.5-8.1-17.8-1.6-25.2C200.2,92.2,292.4,50.6,389.1,50.6c186.1,0,337.5,151.4,337.5,337.5
		S575.3,725.6,389.1,725.6"/>
	<path class="st0" d="M36,473h331.1c9.8,0,17.8,8,17.8,17.8v59l161.9-161.6L384.9,226.6v59c0,9.8-8,17.8-17.8,17.8H36V473z
		 M367.1,610.6c-2.3,0-4.6-0.4-6.8-1.4c-6.7-2.8-11-9.3-11-16.5v-84.1H18.1c-9.8,0-17.8-8-17.8-17.8V285.5c0-9.8,8-17.8,17.8-17.8
		h331.1v-84.1c0-7.2,4.3-13.7,11-16.5c6.6-2.8,14.3-1.2,19.4,3.8l205,204.6c3.3,3.3,5.2,7.9,5.2,12.6c0,4.7-1.9,9.3-5.2,12.6
		l-205,204.6C376.2,608.8,371.7,610.6,367.1,610.6"/>
</g>
</svg>
