<?xml version="1.0" encoding="utf-8"?>
<!-- Generator: Adobe Illustrator 21.0.2, SVG Export Plug-In . SVG Version: 6.00 Build 0)  -->
<svg version="1.1" id="Layer_1" xmlns="http://www.w3.org/2000/svg" xmlns:xlink="http://www.w3.org/1999/xlink" x="0px" y="0px"
	 viewBox="0 0 775 775" style="enable-background:new 0 0 775 775;" xml:space="preserve">
<style type="text/css">
	.st0{clip-path:url(#SVGID_2_);fill:#FFFFFF;}
</style>
<g>
	<defs>
		<rect id="SVGID_1_" x="0" y="0.2" width="774.9" height="774.9"/>
	</defs>
	<clipPath id="SVGID_2_">
		<use xlink:href="#SVGID_1_"  style="overflow:visible;"/>
	</clipPath>
	<path class="st0" d="M387.5,35.8c-94,0-182.3,36.6-248.7,103c-66.4,66.4-103,154.8-103,248.7c0,94,36.6,182.3,103,248.7
		c66.5,66.5,154.8,103,248.7,103s182.3-36.6,248.7-103c66.4-66.4,103-154.8,103-248.7c0-94-36.6-182.3-103-248.7
		S481.4,35.8,387.5,35.8 M387.5,775.1c-103.5,0-200.8-40.3-274-113.5C40.3,588.4,0,491.1,0,387.6c0-103.5,40.3-200.8,113.5-274
		C186.7,40.5,284,0.2,387.5,0.2s200.8,40.3,274,113.5c73.2,73.2,113.5,170.5,113.5,274c0,103.5-40.3,200.8-113.5,274
		C588.3,734.8,491,775.1,387.5,775.1"/>
	<path class="st0" d="M389.2,86C222.6,86,87.1,221.6,87.1,388.2c0,166.6,135.5,302.1,302.1,302.1s302.1-135.5,302.1-302.1
		C691.3,221.6,555.8,86,389.2,86 M389.2,726c-90.2,0-175.1-35.1-238.9-98.9c-63.8-63.8-98.9-148.6-98.9-238.9
		c0-90.2,35.1-175.1,98.9-238.9C214.1,85.5,299,50.3,389.2,50.3c90.2,0,175.1,35.2,238.9,98.9c63.8,63.8,98.9,148.7,98.9,238.9
		c0,90.2-35.1,175.1-98.9,238.9C564.3,690.8,479.4,726,389.2,726"/>
	<path class="st0" d="M388.7,663c-9.5,0-17.3-7.7-17.3-17.3v-67.9c0-9.5,7.7-17.3,17.3-17.3c9.5,0,17.3,7.7,17.3,17.3v67.9
		C405.9,655.3,398.2,663,388.7,663"/>
	<path class="st0" d="M517.8,628.4c-6,0-11.8-3.1-15-8.6l-34-58.8c-4.8-8.2-1.9-18.8,6.3-23.6c8.3-4.8,18.8-1.9,23.6,6.3l33.9,58.8
		c4.8,8.3,1.9,18.8-6.3,23.6C523.6,627.7,520.7,628.4,517.8,628.4"/>
	<path class="st0" d="M612.2,533.9c-2.9,0-5.9-0.7-8.6-2.3l-58.8-33.9c-8.2-4.8-11.1-15.3-6.3-23.6c4.8-8.3,15.3-11.1,23.6-6.3
		l58.8,33.9c8.3,4.8,11.1,15.3,6.3,23.6C624,530.8,618.2,533.9,612.2,533.9"/>
	<path class="st0" d="M578.9,404.8c-9.5,0-17.3-7.7-17.3-17.3c0-9.5,7.7-17.3,17.3-17.3h67.9c9.5,0,17.2,7.7,17.2,17.3
		c0,9.5-7.7,17.3-17.2,17.3H578.9z"/>
	<path class="st0" d="M165.1,533.9c-6,0-11.8-3.1-15-8.6c-4.8-8.3-1.9-18.8,6.3-23.6l58.8-33.9c8.2-4.8,18.8-1.9,23.6,6.3
		c4.8,8.2,1.9,18.8-6.3,23.6l-58.8,33.9C171,533.2,168.1,533.9,165.1,533.9"/>
	<path class="st0" d="M553.4,309.7c-6,0-11.8-3.1-15-8.6c-4.8-8.3-1.9-18.8,6.3-23.6l58.8-33.9c8.2-4.8,18.8-1.9,23.6,6.3
		c4.8,8.3,1.9,18.8-6.3,23.6L562,307.4C559.3,309,556.4,309.7,553.4,309.7"/>
	<path class="st0" d="M259.6,628.4c-2.9,0-5.9-0.7-8.6-2.3c-8.2-4.8-11.1-15.3-6.3-23.6l33.9-58.8c4.8-8.3,15.3-11.1,23.6-6.3
		c8.3,4.8,11.1,15.3,6.3,23.6l-34,58.8C271.4,625.3,265.6,628.4,259.6,628.4"/>
	<path class="st0" d="M483.8,240.1c-2.9,0-5.9-0.7-8.6-2.3c-8.2-4.8-11.1-15.3-6.3-23.6l33.9-58.8c4.8-8.3,15.3-11.1,23.6-6.3
		c8.3,4.8,11.1,15.3,6.3,23.6l-33.9,58.8C495.5,237,489.7,240.1,483.8,240.1"/>
	<path class="st0" d="M302.2,237.8c-2.7,1.6-5.7,2.3-8.6,2.3c-6,0-11.8-3.1-15-8.6l-33.9-58.8c-4.8-8.3-1.9-18.8,6.3-23.6
		c8.3-4.8,18.8-1.9,23.6,6.3l33.9,58.8C313.3,222.5,310.4,233,302.2,237.8 M238.9,301.1c-3.2,5.5-9,8.6-15,8.6
		c-2.9,0-5.9-0.7-8.6-2.3l-58.8-34c-8.3-4.8-11.1-15.3-6.3-23.6c4.8-8.3,15.3-11.1,23.6-6.3l58.8,33.9
		C240.8,282.3,243.6,292.9,238.9,301.1 M388.7,78.3c-171.5,0-310.5,139-310.5,310.5h310.5V78.3z"/>
</g>
</svg>
