<?xml version="1.0" encoding="utf-8"?>
<!-- Generator: Adobe Illustrator 21.0.2, SVG Export Plug-In . SVG Version: 6.00 Build 0)  -->
<svg version="1.1" id="Layer_1" xmlns="http://www.w3.org/2000/svg" xmlns:xlink="http://www.w3.org/1999/xlink" x="0px" y="0px"
	 viewBox="0 0 775 775" style="enable-background:new 0 0 775 775;" xml:space="preserve">
<style type="text/css">
	.st0{clip-path:url(#SVGID_2_);fill:#FFFFFF;}
</style>
<g>
	<defs>
		<rect id="SVGID_1_" x="0.5" y="0.7" width="774.6" height="774.6"/>
	</defs>
	<clipPath id="SVGID_2_">
		<use xlink:href="#SVGID_1_"  style="overflow:visible;"/>
	</clipPath>
	<path class="st0" d="M387.8,36.3c-93.9,0-182.2,36.6-248.7,103c-66.4,66.4-103,154.7-103,248.7c0,93.9,36.6,182.2,103,248.6
		c66.4,66.4,154.7,103,248.7,103s182.2-36.6,248.6-103c66.4-66.4,103-154.7,103-248.6c0-93.9-36.6-182.2-103-248.7
		S481.8,36.3,387.8,36.3 M387.8,775.3c-103.5,0-200.7-40.3-273.9-113.4C40.8,588.7,0.5,491.4,0.5,388
		c0-103.5,40.3-200.7,113.4-273.9C187.1,40.9,284.4,0.7,387.8,0.7s200.7,40.3,273.9,113.4c73.2,73.2,113.4,170.4,113.4,273.9
		c0,103.4-40.3,200.7-113.4,273.9C588.6,735,491.3,775.3,387.8,775.3"/>
	<path class="st0" d="M387.8,85.9c-166.5,0-302,135.5-302,302c0,166.5,135.5,302,302,302s302-135.5,302-302
		C689.9,221.4,554.4,85.9,387.8,85.9 M387.8,725.7c-90.2,0-175-35.1-238.8-98.9S50.1,478.2,50.1,388c0-90.2,35.1-175,98.9-238.8
		c63.8-63.8,148.6-98.9,238.8-98.9c90.2,0,175,35.1,238.8,98.9c63.8,63.8,98.9,148.6,98.9,238.8c0,90.2-35.1,175-98.9,238.8
		S478,725.7,387.8,725.7"/>
	<path class="st0" d="M395.9,624.2c-13.1,0-23.8-10.7-23.8-23.8V216.1l-51.9,32.2c-11.2,6.9-25.8,3.5-32.7-7.7
		c-6.9-11.2-3.5-25.8,7.7-32.7l88.2-54.7c7.3-4.6,16.6-4.8,24.1-0.6s12.2,12.2,12.2,20.8v427.1C419.7,613.6,409,624.2,395.9,624.2"
		/>
	<path class="st0" d="M490.5,624.2H307.6c-13.1,0-23.8-10.7-23.8-23.8c0-13.1,10.7-23.8,23.8-23.8h182.8c13.1,0,23.8,10.6,23.8,23.8
		C514.3,613.6,503.6,624.2,490.5,624.2"/>
</g>
</svg>
