<?xml version="1.0" encoding="utf-8"?>
<!-- Generator: Adobe Illustrator 21.0.2, SVG Export Plug-In . SVG Version: 6.00 Build 0)  -->
<svg version="1.1" xmlns="http://www.w3.org/2000/svg" xmlns:xlink="http://www.w3.org/1999/xlink" x="0px" y="0px"
	 viewBox="0 0 775 775" style="enable-background:new 0 0 775 775;" xml:space="preserve">
<style type="text/css">
	.st0{fill:#FFFFFF;}
	.st1{display:none;}
	.st2{display:inline;fill:none;stroke:#009DDC;stroke-width:28.1249;stroke-miterlimit:10;}
	.st3{display:inline;fill:none;stroke:#009DDC;stroke-width:24.9335;stroke-miterlimit:10;}
	.st4{display:inline;}
	.st5{fill:none;stroke:#009DDC;stroke-width:28.1249;stroke-miterlimit:10;}
	.st6{fill:none;stroke:#009DDC;stroke-width:25;stroke-miterlimit:10;}
	.st7{fill:#009DDC;}
	.st8{fill:none;stroke:#FFFFFF;stroke-width:24.3298;stroke-linejoin:round;stroke-miterlimit:10;}
	.st9{fill:none;stroke:#FFFFFF;stroke-width:24.3298;stroke-miterlimit:10;}
</style>
<g id="Layer_1">
	<path class="st0" d="M387.1,36.3C193.2,36.3,35.5,194,35.5,387.9c0,193.9,157.7,351.6,351.6,351.6c193.9,0,351.6-157.7,351.6-351.6
		C738.7,194,580.9,36.3,387.1,36.3 M387.1,775.2C173.5,775.2-0.2,601.5-0.2,387.9S173.5,0.6,387.1,0.6
		c213.5,0,387.3,173.7,387.3,387.3C774.4,601.5,600.6,775.2,387.1,775.2"/>
	<path class="st0" d="M388.8,50.8c-186.2,0-337.7,151.5-337.7,337.7c0,186.2,151.5,337.7,337.7,337.7s337.7-151.5,337.7-337.7
		C726.5,202.3,575,50.8,388.8,50.8z M388.8,700.8c-173.2,0-313.6-140.4-313.6-313.6S215.6,73.6,388.8,73.6S702.4,214,702.4,387.2
		S562,700.8,388.8,700.8z"/>
</g>
<g id="Layer_3" class="st1">
	<circle class="st2" cx="393.2" cy="280.4" r="66.6"/>
	<circle class="st3" cx="573.8" cy="335" r="59.1"/>
	<circle class="st3" cx="212.6" cy="335" r="59.1"/>
	<path class="st2" d="M393.2,380c-62.1,0-112.5,50.4-112.5,112.5V629c33,14.8,69.5,23,108,23c42,0,81.7-9.8,117-27.2V492.5
		C505.7,430.3,455.4,380,393.2,380z"/>
	<path class="st2" d="M573.8,423.3c-29.4,0-55.8,12.7-74.1,33c3.9,11.4,5.9,23.5,5.9,36.2v132.3c-10.2,5-20.7,9.4-31.6,13.1v0
		C558,609.3,622.9,539.8,645,453.2C626.9,434.8,601.7,423.3,573.8,423.3z"/>
	<g class="st4">
		<path class="st5" d="M280.7,492.5c0-12.7,2.1-24.8,5.9-36.2c-18.3-20.2-44.7-33-74.1-33c-31.6,0-59.8,14.7-78.1,37.7
			c21.7,75.1,75.8,136.5,146.2,168V492.5z"/>
		<path class="st5" d="M300.7,637c1.4,0.5,2.8,1,4.2,1.4C303.5,637.9,302.1,637.5,300.7,637z"/>
		<path class="st5" d="M307.6,639.3c1,0.3,2,0.6,3,0.9C309.6,639.9,308.6,639.6,307.6,639.3z"/>
		<path class="st5" d="M282,629.6c1.2,0.5,2.5,1.1,3.7,1.6C284.5,630.6,283.2,630.1,282,629.6z"/>
		<path class="st5" d="M295,634.9c1,0.4,2,0.7,3,1.1C296.9,635.6,295.9,635.2,295,634.9z"/>
		<path class="st5" d="M288.1,632.2c1.4,0.6,2.7,1.1,4.1,1.6C290.8,633.3,289.5,632.7,288.1,632.2z"/>
	</g>
</g>
<g id="Layer_4" class="st1">
	<g class="st4">
		<circle class="st6" cx="388.8" cy="387.2" r="313.6"/>
		<path class="st6" d="M165.9,166.6c0,41.5,99.8,75.1,222.9,75.1s222.9-33.6,222.9-75.1"/>
		<path class="st6" d="M91,483.3c0,55.4,133.3,100.3,297.8,100.3s297.8-44.9,297.8-100.3"/>
		<path class="st6" d="M82.2,320.4c0,57,137.3,103.2,306.6,103.2s306.6-46.2,306.6-103.2"/>
		<ellipse class="st6" cx="388.8" cy="387.2" rx="187.9" ry="313.6"/>
		<line class="st6" x1="388.8" y1="73.6" x2="388.8" y2="700.8"/>
	</g>
</g>
<g id="Layer_2" class="st1">
	<g class="st4">
		<path class="st7" d="M387.1,657.9c-9.8,0-17.8-8-17.8-17.8V485.5c0-9.8,8-17.8,17.8-17.8c9.8,0,17.8,8,17.8,17.8v154.6
			C404.9,649.9,396.9,657.9,387.1,657.9"/>
		<path class="st7" d="M387.1,316.5c-9.8,0-17.8-8-17.8-17.8V144c0-9.8,8-17.8,17.8-17.8c9.8,0,17.8,8,17.8,17.8v154.6
			C404.9,308.5,396.9,316.5,387.1,316.5"/>
		<path class="st7" d="M298.7,405.8H134.9c-9.8,0-17.8-8-17.8-17.8c0-9.8,8-17.8,17.8-17.8h163.8c9.8,0,12.9,8,12.9,17.8
			C311.7,397.8,308.6,405.8,298.7,405.8"/>
		<path class="st7" d="M640.3,405.8H476.4c-9.8,0-17.8-8-17.8-17.8c0-9.8,8-17.8,17.8-17.8h163.8c9.9,0,17.8,8,17.8,17.8
			C658.1,397.8,650.1,405.8,640.3,405.8"/>
		<path class="st7" d="M434.3,204.7c-4.6,0-9.1-1.7-12.6-5.2l-34.7-34.6l-34.6,34.6c-7,6.9-18.3,7-25.2,0c-7-7-7-18.3,0-25.2
			l47.2-47.2c6.7-6.7,18.5-6.7,25.2,0l47.3,47.2c7,7,7,18.3,0,25.2C443.5,203,438.9,204.7,434.3,204.7"/>
		<path class="st7" d="M387.1,657.9c-4.6,0-9.1-1.7-12.6-5.2l-47.2-47.2c-7-7-7-18.3,0-25.2c7-7,18.3-7,25.2,0l34.6,34.6l34.6-34.6
			c7-7,18.2-7,25.2,0c7,7,7,18.3,0,25.2l-47.2,47.2C396.2,656.2,391.6,657.9,387.1,657.9"/>
		<path class="st7" d="M593,453c-4.6,0-9.1-1.7-12.6-5.2c-7-7-7-18.3,0-25.2l34.6-34.6l-34.6-34.6c-7-7-7-18.3,0-25.2
			c7-7,18.3-7,25.2,0l47.2,47.2c3.4,3.4,5.2,7.9,5.2,12.6c0,4.7-1.9,9.3-5.2,12.6l-47.2,47.2C602.2,451.3,597.6,453,593,453"/>
		<path class="st7" d="M182.2,453c-4.6,0-9.1-1.7-12.6-5.2l-47.2-47.2c-7-7-7-18.3,0-25.2l47.2-47.2c7-7,18.3-7,25.2,0
			c7,7,7,18.3,0,25.2l-34.6,34.6l34.6,34.6c7,7,7,18.3,0,25.2C191.3,451.3,186.7,453,182.2,453"/>
		<path class="st7" d="M387.1,316.9c-39.4,0-71.5,32.1-71.5,71.5c0,39.4,32.1,71.5,71.5,71.5s71.5-32.1,71.5-71.5
			C458.6,349,426.5,316.9,387.1,316.9 M387.1,495.6c-59.1,0-107.2-48.1-107.2-107.2c0-59.1,48.1-107.2,107.2-107.2
			s107.2,48.1,107.2,107.2C494.3,447.5,446.2,495.6,387.1,495.6"/>
		<path class="st7" d="M208.8,584.1c-4.6,0-9.1-1.7-12.6-5.2c-7-7-7-18.3,0-25.2l109.3-109.3c7-7,18.3-7,25.2,0c7,7,7,18.3,0,25.2
			L221.4,578.8C217.9,582.3,213.3,584.1,208.8,584.1"/>
		<path class="st7" d="M450.2,342.6c-4.6,0-9.1-1.7-12.6-5.2c-7-7-7-18.3,0-25.2l109.3-109.3c7-7,18.3-7,25.2,0c7,7,7,18.3,0,25.2
			L462.8,337.4C459.4,340.9,454.8,342.6,450.2,342.6"/>
		<path class="st7" d="M324.6,343.3c-4.6,0-9.1-1.7-12.6-5.2L196.2,222.2c-7-7-7-18.3,0-25.2c7-7,18.2-7,25.2,0l115.8,115.8
			c7,7-1.1,10.2-8.1,17.2C325.7,333.5,329.2,343.3,324.6,343.3"/>
		<path class="st7" d="M566.1,584.8c-4.6,0-9.1-1.7-12.6-5.2L437.7,463.7c-7-7-7-18.3,0-25.2c7-7,18.2-7,25.2,0l115.8,115.8
			c7,7,7,18.3,0,25.2C575.3,583.1,570.7,584.8,566.1,584.8"/>
		<path class="st7" d="M571.7,288c-9.8,0-17.8-8-17.8-17.8v-49h-49c-9.9,0-17.8-8-17.8-17.8c0-9.9,8-17.8,17.8-17.8h66.8
			c9.9,0,17.8,8,17.8,17.8l0,66.8C589.5,280,581.5,288,571.7,288"/>
		<path class="st7" d="M268,590.3h-66.8c-9.8,0-17.8-8-17.8-17.8v-66.8c0-9.8,8-17.8,17.8-17.8c9.8,0,17.8,8,17.8,17.8v49h49
			c9.8,0,17.8,8,17.8,17.8S277.9,590.3,268,590.3"/>
		<path class="st7" d="M571.6,590.3h-66.8c-9.8,0-17.8-8-17.8-17.8c0-9.8,8-17.8,17.8-17.8h49v-49c0-9.8,8-17.8,17.8-17.8
			c9.9,0,17.8,8,17.8,17.8v66.8C589.4,582.3,581.5,590.3,571.6,590.3"/>
		<path class="st7" d="M200.5,286c-9.8,0-17.8-8-17.8-17.8v-66.8c0-9.8,8-17.8,17.8-17.8h66.8c9.8,0,17.8,8,17.8,17.8
			c0,9.8-8,17.8-17.8,17.8h-49v49C218.4,278,210.4,286,200.5,286"/>
	</g>
</g>
<g id="Layer_5" class="st1">
	<g class="st4">
		<polygon class="st7" points="242.8,168.7 243.5,167.4 240,168.7 		"/>
		<path class="st7" d="M666.2,245.4l0.7-0.7V244l-1.4-3.5l-0.5-1.9c-4.5-8.4-9.4-16.5-14.7-24.5l0.4,1.5l1.4,1.4
			c1.4,2.8,2.8,4.8,3.5,6.9l1.4,2.1l1.4,2.8l2.1,2.8l0.7,2.1l2.1,4.1v3.5l0.7,2.8l0.7,2.8h0l1.4,0.7V245.4z"/>
		<polygon class="st7" points="340.6,152.2 343.4,151.5 346.2,150.8 342,151.5 		"/>
		<polygon class="st7" points="410.2,137 408.1,135.6 408.1,136.3 		"/>
		<path class="st7" d="M621.2,179.1v-1.4l-2.1-2.8l-0.7-0.7l0.7,1.4C619.8,176.3,620.5,177.7,621.2,179.1z"/>
		<path class="st7" d="M644.7,205.9c-0.5-0.7-1-1.3-1.4-2l0.4,0.7C644,205.2,644.4,205.6,644.7,205.9z"/>
		<path class="st7" d="M696.8,328.3c3,17,4.5,34.5,4.5,52.4c0,5.5-0.7,11.7-0.7,17.3l-0.7-2.1l-2.1-0.7V389l-1.4-2.1l-0.7-1.4H695
			l-0.7-0.7v-2.8h-0.7l-0.7-1.4l-0.7-1.4v-0.7l-0.7-0.7c-0.7-0.7-0.7-2.8-0.7-4.1v-2.8l-1.4-2.8l-0.7-1.4l0.7-2.1v-7.6l-0.7-2.1
			v-2.1l-0.7-4.8c-0.7-2.8-1.4-4.8-2.1-6.9l-0.7-2.8l-0.7-2.1l-1.4-1.4c-0.7-1.4-0.7-2.8-1.4-4.1v-4.8l-0.7-1.4l-0.7-3.5v-4.8
			l-0.7-2.8l-0.7-3.5l-0.7-3.5v-2.8l-1.4-5.5v-2.8l0.7-2.1l-0.7-4.8v-8.3l-2.8-5.5c-0.7-2.8-2.1-4.8-2.8-6.9l-1.4-4.1
			c0-2.8-0.7-4.1-1.4-6.9c-1.4-2.8-2.8-5.5-3.5-9v-1.4l-2.1,0.7l-1.4-0.7l-2.1-2.1l-0.7,0.7l0.7,2.1h-0.7v1.4l-2.1-3.5l-2.1-2.8
			l-1.4-1.4l1.4-2.8l-0.7-2.1c-0.7-1.4-2.1-2.8-2.8-4.1l-1.4-2.1l-0.7-0.7c-1.4-1.4-2.1-2.8-2.8-4.1l-1.4-1.4l-1.4-4.8l1.4-1.4
			l0.7-2.1l0.7-0.7v-4.1l-2.1-2.8l-6.3-8.3l-2.8-2.8l-2.1-0.7l-1.4,0.7l-2.8-2.8l-0.7-1.4l1.4-1.4l-3.5-3.5h1.4l-2.8-6.2l-2.8-2.8
			v0.7l0.7,2.8h-0.7l1.4,2.8l-0.7,0.7l1.4,2.8h-0.7l-2.8-5.5l-0.7-2.1l-0.7,1.4l-2.1-1.4l-0.7-2.8l-2.1,1.4l-2.8-2.8l0.7-2.1
			l-1.4-1.4l-2.8-1.4v1.4l-1.4-0.7l-2.1-2.1l-1.4-0.7l2.1,2.8l-3.5-2.8l-2.1-1.4l-3.5-3.5l-3.5-4.8v-2.1l3.5,4.8l-0.7-2.1v-1.4
			l2.8,2.8l2.8,3.5l0.7-1.4l4.9,2.8l0.7-0.7c2.1,1.4,3.5,2.8,5.6,3.5l0.7-1.4l2.8,2.8l1.4,2.1l1.4,0.7l-0.7-0.7l-6.3-6.9l-1.2-1.6
			c-8.4-8.4-17.3-16.3-26.7-23.7l5.4,5.3l2.1,2.8h-1.4c-4.2-2.8-9.1-5.5-13.4-9l-2.8-2.8l-4.2-5.5l-5.6-4.1
			c-5.6-4.5-12-8.8-18.8-12.9c-45.9-26.4-99.2-41.4-155.9-41.4c-41,0-80.1,7.9-116,22.1l-1.9,1.9l-2.8,1.4l-2.8,1.4l-2.8,1.4
			l-2.8,1.4v0.7l-1.4,1.4l-2.1,2.1v2.1l-4.9,2.8l1.4,0.7l2.8-2.1l2.1-0.7l-2.1,1.4v2.1l-2.8,3.5l-2.1,2.1c-2.8,2.8-4.2,5.5-7,9
			l-2.8,1.4l-0.7,1.4l2.8-2.1l0.7,2.8l-2.8,4.1h-2.8l-2.1-1.4l-4.2,2.8h-1.4v-1.4l1.4-2.1l0.7-2.1l2.1-1.4l0.7-1.4l-0.7-0.7l2.1-2.1
			l2.1-0.7l-2.1-0.7l-2.1,2.1l-2.1,0.7c0,0,0,0-0.7,0h-2.1l0.7-1.4l-2.8,2.8l-2.8,3.5h-0.7l-2.1,1.4l-1.4,0.7l1.4-2.8l-2.8-1.4v-0.7
			h-4.2l-2.1,0.7l4.2-2.8l-1.8-1.2c-84.3,56.2-139.8,152.1-139.8,261c0,173.2,140.4,313.6,313.6,313.6s313.6-140.4,313.6-313.6
			C702.4,367.1,700.5,347.4,696.8,328.3z M605,175l2.8,0.7l5.6,5.5l2.8,4.1v4.1l-1.4,1.4l-2.8-4.8l-3.5-2.8
			c-1.4-2.8-2.8-4.8-3.5-6.9V175z M548.8,154.2l4.2,0.7l-0.7-2.8h2.8l-2.1-2.8l1.4-1.4l2.8,2.1l3.5,1.4l2.8,3.5l0.7,4.8v1.4
			c-2.1,0.7-3.5,1.4-5.6,2.8l-1.4-3.5l-4.2,0.7l1.4-2.1l-1.4-0.7l-2.8,1.4l-2.1-2.8L548.8,154.2z M538.9,249.5l2.1-1.4l1.4,2.8
			l2.8,2.8l0.7,4.1l-1.4,0.7l-2.8-0.7l-1.4-3.5l-1.4-0.7l-2.1,4.8h-2.1l1.4-2.8l-3.5-0.7l-2.8,1.4l-6.3,1.4l-1.4-1.4l1.4-2.1
			l-2.1-1.4l2.1-2.8l0.7-8.3l0.7-2.8l2.1-2.1h1.4v1.4c0,2.8-0.7,4.8-0.7,7.6l1.4-2.1l2.8,0.7l-0.7,2.1l2.8,0.7l0.7-1.4l3.5,0.7
			L538.9,249.5z M448.2,124.5l3.5-0.7l2.8,0.7l1.4-2.8l3.5,0.7h4.9l-4.2-0.7l-2.1-2.1l1.4-2.8l2.8-1.4l-0.7-1.4l2.8-1.4
			c2.1-0.7,3.5-2.1,5.6-2.8c2.1,0,4.9-0.7,7-0.7l0.7,2.1c-2.1,1.4-2.8,2.8-4.9,4.1h1.4l2.1-2.1l2.8-0.7l-0.7-1.4h2.8l2.1,2.1v-4.8
			l2.1-1.4l2.8,0.7l2.1,3.5l0.7,0.7l-0.7,2.1l1.4-1.4c2.1,1.4,3.5,2.8,5.6,4.1l4.9,2.8l3.5,0.7l-0.7,1.4l0.7,2.1h3.5l3.5,2.1v0.7
			l4.9,1.4l-1.4,2.1h2.8l1.4,1.4l-0.7,1.4l-1.4,1.4l3.5,1.4l2.1,1.4h-3.5l1.4,1.4h2.8l3.5,0.7l3.5,2.1l-0.7,2.1
			c-2.1-0.7-3.5-1.4-5.6-1.4l2.8,2.1l1.4,2.8c1.4-0.7,2.8-2.1,4.2-2.8l1.4,4.1v4.1l-2.8,2.8l-1.4,0.7v2.1l2.1,4.1l-0.7,3.5l-1.4,1.4
			l-1.4,2.1l-2.8,2.8l0.7,2.8l2.8,2.8l1.4,2.8l-0.7,4.1l2.8,2.8c1.4,2.8,2.8,4.8,3.5,7.6h-2.1l-5.6-2.8l-4.2,1.4l-3.5-1.4l-4.2-2.8
			l-7.7-3.5l-2.8-2.8l-2.8-2.8l-5.6-2.8l-2.1-3.5l-2.8-0.7l-1.4-4.8l2.1-2.1l-0.7-2.1l-2.1-2.8v2.8l-0.7,0.7l-1.4,0.7l-2.8-1.4
			l-2.1-2.8v-1.4l2.1-0.7h4.2c-2.8-0.7-4.9-1.4-7.7-2.8l-1.4,0.7l-2.1-0.7l-0.7-3.5l-2.1-1.4c-2.8-2.1-5.6-3.5-8.4-4.8l-2.8-0.7
			l-1.4-0.7l-6.3-1.4l-3.5,0.7c-2.8,0.7-5.6,1.4-9.1,1.4l-2.8-0.7l-4.2-2.1l3.5-1.4l2.8-0.7h-7l-4.2-1.4l-0.7-0.7
			c2.8-1.4,7-2.8,9.8-4.1v-1.4l-4.9-0.7l1.4-1.4l2.8-2.8l2.1-0.7l-1.4-0.7l2.8-1.4L448.2,124.5z M468.6,186l4.2,1.4l1.4,0.7l3.5,3.5
			l0.7,2.8h-4.2l-8.4-2.8c2.8,2.1,6.3,3.5,9.1,4.8l1.4,1.4l-8.4-0.7l-7-2.1l-3.5-0.7l0.7-1.4c-2.8-1.4-6.3-2.8-9.1-2.8l0.7,1.4
			l-8.4,1.4l-2.8-1.4l1.4-2.8l4.9-1.4l5.6-0.7l-1.4-1.4v-2.1l2.1-4.1l-1.4-2.1l-2.1-2.1l-4.2-1.4l-5.6-0.7l1.4-1.4l-2.8-2.8h-2.8
			l-2.8-1.4l-1.4,1.4l-4.2,0.7l-9.1-0.7c-2.8-0.7-6.3-1.4-9.1-2.1l-2.1-1.4l2.8-2.1h-3.5l-1.4-2.8l2.1-2.8l2.8-1.4l5.6-0.7l-1.4,2.8
			l2.1,2.8l2.1-2.8l5.6-1.4l4.2,3.5v2.8l4.2-1.4l2.1-1.4l5.6,2.1l3.5,1.4l0.7,2.1l3.5-1.4l2.8,2.1l6.3,0.7l2.8,1.4l3.5,2.8l-2.8,2.8
			l7,2.1l4.2,0.7l4.9,2.8l3.5-0.7l0.7,2.8l-2.1,4.1l-3.5-1.4l-4.9-4.1l-2.8,0.7v2.8L468.6,186z M434.1,194.3l-2.8,1.4l-4.9-1.4
			l-2.1-2.1l-2.8,2.8l-4.2,2.1l-0.7-2.8l-4.2,0.7l2.8-2.1v-2.8l0.7-3.5l2.1,0.7l0.7,2.1l1.4-0.7l2.1,1.4c2.8,0.7,4.2,2.1,7,2.8
			l0.7,2.1l2.1-0.7H434.1z M392.6,132.1l1.4-0.7h2.1l-1.4-1.4h3.5l2.1,2.1c2.1,0.7,3.5,1.4,5.6,1.4l1.4,2.1h0.7l0,0l-0.7-1.4h4.2
			l1.4,0.7l2.8-1.4h-9.1l-2.8-1.4l-1.4-1.4l-2.1-1.4l-0.7-1.4l2.8,0.7h2.1l2.8-0.7l2.1-1.4h2.1l2.1,0.7l0.7-1.4l2.1-0.7l2.8-0.7
			l3.5-0.7h4.2c3.5,0,8.4-0.7,12-0.7l2.8,0.7l0.7,0.7l-2.1,2.1l-2.8,1.4l-0.7,0.7h2.1l-2.1,2.8l-1.4,0.7l-1.4,2.8l-3.5,0.7l-0.7,0.7
			L425,137h2.8l-0.7,0.7l2.1,1.4l-1.4,1.4l-2.8,1.4l-0.7,1.4l-2.8,1.4l0.7,0.7h2.8v0.7l-4.2,2.8h0.7l2.8,1.4l0.7,1.4l-1.4,0.7
			l-2.8,0.7l-2.8-0.7l-7,0.7h-4.2l-3.5-0.7l-4.9-0.7l-0.7-2.1v-2.1l-2.8-1.4h-4.2l-2.1-1.4l1.4-1.4l3.5,0.7l2.1,1.4h3.5l2.1,1.4v1.4
			l2.8,0.7l1.4,0.7c2.1,0,3.5,0.7,6.3,0.7l2.8-0.7l4.2-0.7h2.1l-5.6-0.7l-5.6,0.7l-2.8-0.7h-3.5v-2.1l3.5-0.7l-1.4-2.8h1.4l4.9,1.4
			l-2.8-2.1l-2.8-0.7l1.4-1.4l2.8-0.7l0.7-1.4l-0.7-0.7l-2.8,1.4l-2.8,2.8h-2.8l-3.5-0.7l-2.8-2.1V137l1.4-0.7H394l-2.1-1.4
			l-0.7-1.4L392.6,132.1z M401.8,154.9l-3.5,2.8l-2.8,0.7l-2.8,2.8h-2.8l-1.4-2.8v-2.1l1.4-1.4l2.8-0.7l4.2,0.7H401.8z M387,137.7
			h4.2l2.1,1.4l-0.7,1.4l-2.8,0.7l-1.4-0.7L387,139V137.7z M387,146.6v2.1l-1.4,2.8h-3.5l-2.1-0.7l0.7-2.1h-2.8l0.7-2.8h2.1l2.8-0.7
			l2.1-0.7L387,146.6z M375.7,134.2l2.8,0.7l4.2,2.1l1.4,2.1l0.7,1.4l-2.8-0.7l-2.8-1.4l-3.5-0.7l2.1-0.7l-2.8-1.4L375.7,134.2z
			 M372.2,157h1.4l4.2,0.7l-2.1-2.8l2.8-1.4l2.8,1.4h3.5l0.7,1.4l-2.8,1.4l2.8,2.1l-0.7,2.8l-4.2,1.4l-2.1-0.7l-1.4-1.4l-4.9-2.8
			V157z M351.1,141.8l2.8-0.7l4.2,2.1l2.8,2.8l2.8,0.7l-1.4-3.5l2.8-0.7l2.1,0.7v3.5h2.1l2.1,0.7v2.1l-2.1,1.4l-7-0.7l-5.6,0.7
			l-3.5-2.8l0.7-1.4l4.9-0.7c-2.8,0-6.3-0.7-9.1-1.4l-2.8-0.7L351.1,141.8z M324.4,150.8l3.5-2.8l2.8-2.1v-2.8l6.3,1.4l2.1,1.4
			l4.2,1.4l1.4,1.4l1.4,2.1l2.8-0.7l2.1,1.4l-2.1,1.4h4.2l2.1,2.8l2.8-1.4l1.4,1.4l0.7,3.5l2.1-1.4v-3.5h2.1l2.1,0.7l2.1,2.1v6.2
			c1.4,2.1,3.5,3.5,6.3,4.1l-1.4,2.1h-4.2l1.4,2.1l-1.4,1.4l-4.2-1.4l-3.5-2.1h-2.8l-5.6,0.7c-3.5,0-7.7-0.7-10.5-0.7l-0.7-2.1
			l-2.8-1.4h-2.8l-1.4-2.8h5.6l2.8,0.7h2.8l-2.8-2.1l-4.2-1.4l-2.8-0.7v-1.4l5.6-0.7l-2.8-0.7l-2.8-2.1l2.8-2.1l1.4-0.7l-2.8,0.7
			l-4.2,2.1c-0.7,0.7-0.7,1.4-1.4,1.4l-6.3,0.7v-2.1l-2.8-2.8L324.4,150.8z M645.1,504.4l-3.5,8.3l-2.8,3.5l-6.3,8.3l-2.8,5.5
			l-3.5,4.8l-0.7,0.7l-2.1,3.5l-2.8,8.3c-2.1,2.8-2.8,6.2-4.9,9l-2.1,2.1l-2.8,5.5L605,570l-1.4,4.1l-2.8,2.8l-2.1,2.8
			c-1.4,0.7-2.8,0.7-2.8,1.4l-5.6,2.8l-2.8,2.8l-4.2,2.8l-5.6,4.1l-6.3,4.1l-2.1,2.8v1.4l-2.8,3.5l-2.1,2.1l-3.5,2.8l-7.7,6.9
			c-2.8,2.1-4.9,3.5-8.4,4.8l-3.5,2.8l-5.6,5.5l-4.9,2.8h-2.1l-2.1,0.7l-2.8-0.7l-2.8,0.7l-1.4-1.4l-1.4,2.1l2.8,2.1l-2.1,2.1
			l1.4,0.7l-1.4,1.4l-5.6,4.1l-4.9,1.4l-7.7,2.1l-3.5,0.7l-1.4,1.4v1.4l-2.8,1.4l-3.5,0.7l-2.1-1.4l-2.8,1.4l-1.4,2.8l2.1,0.7
			l2.8-1.4v1.4l-3.5,1.4l-3.5,2.1l-2.8,2.8l-2.1,1.4l-4.2-0.7l-3.5,1.4l-2.8,2.1l2.1,1.4h2.8l-2.8,2.1l-4.9,1.4l-4.2,2.8l-3.5,1.4
			l-2.8-0.7L451,677l1.4,0.7c-0.7,0-0.7,0-1.4,0v0.7l2.8,0.7h2.8l-1.4,0.7l-2.8,0.7h-0.7l-2.1,0.7l-2.8,0.7h-6.3
			c-2.1,0-2.8-0.7-4.9-0.7l-2.8-2.1l2.1,1.4l2.8,0.7h4.2l2.1-1.4c2.1-0.7,2.8-0.7,4.9-1.4c0.7-0.7,1.4-0.7,2.1-0.7V677h-2.1
			l-2.8,0.7l-2.1,1.4l-2.8,0.7h-2.8l-2.8-0.7h-2.8l-0.7-0.7v-0.7l2.1-1.4l-0.7-1.4l2.1-2.8l2.8-2.1l4.2-2.1h-4.9l4.2-2.1l2.8-3.5
			l3.5,0.7l4.2-4.1h-0.7l-2.8,2.8h-2.1c2.8-2.8,4.2-4.8,6.3-7.6l2.8-2.1v-2.8l1.4-2.8h2.1c2.8-2.8,6.3-6.2,9.1-9l3.5-4.1l0.7-4.1
			l2.8-2.8l0.7-3.5l3.5-4.1c2.8-7.6,7-15.2,9.8-21.4l1.4-6.2l0.7-4.8l-4.2-2.1v-2.1l-9.1-2.8l-8.4-3.5l-3.5-2.8l-2.1-2.8l1.4-1.4
			l-3.5-4.8c-2.8-5.5-5.6-10.4-8.4-15.9l-2.1-2.1l-1.4-2.8l-3.5-2.8l-3.5-2.1l2.1-2.1l-2.8-4.1l2.1-2.8l4.2-2.8l2.8-3.5v-5.5
			l-2.8,2.8l-2.8-2.1l1.4-1.4l-0.7-4.1l2.1-0.7l1.4-2.8l2.8-2.8v-2.1l2.8-1.4l3.5-2.1l-1.4-2.8l2.1-0.7v-2.8l1.4-2.1l2.8-0.7
			c1.4-2.1,2.8-4.1,4.2-6.2l-1.4-0.7l1.4-2.8l-1.4-4.8l1.4-1.4l-0.7-4.1l-2.1-2.1l-2.1-1.4l-1.4-2.8l1.4-1.4h-1.4l-0.7-1.4l-2.8-1.4
			l-2.8-0.7l-0.7,2.1l-2.8,1.4H451l-0.7,1.4l2.8,2.8h-1.4l-0.7,0.7l-2.1,0.7l-0.7-2.8l-0.7,0.7h-2.1l-1.4-2.1h-2.8l-1.4-0.7h-2.8
			v1.4l-0.7-0.7l-2.8-1.4l-1.4-1.4l0.7-0.7v-1.4l-1.4-1.4l-2.1-1.4l-2.1-0.7l-0.7-1.4l-1.4-2.1v1.4l-1.4,1.4l-1.4-0.7l-0.7-1.4v-2.1
			l0.7-2.1l-1.4-0.7l1.4-1.4c-1.4-1.4-2.8-2.8-4.2-3.5l-1.4-1.4l-2.8-2.1l-2.8-2.8l0.7-0.7l0.7,0.7l0.7-0.7l-0.7-2.1l-2.1-0.7
			l-0.7,1.4h-2.8l-2.1-0.7l-2.1-0.7l-2.8-0.7l-1.4,1.4l-3.5-0.7h-3.5l-2.8-1.4l-2.8-2.8l-6.3-5.5l-2.1-2.8l-4.2-1.4h-2.8l-4.2,2.1
			l-2.8,0.7l-3.5-2.1l-3.5-1.4l-4.9-2.8l-4.9-0.7l-7-2.8l-4.2-2.8l-1.4-1.4l-2.8-0.7l-5.6-2.1l-2.1-2.8l-4.9-3.5l-2.8-3.5l-1.4-2.8
			h2.1v-1.4l1.4-1.4v-2.1l-1.4-2.8v-2.1l-1.4-2.8L311,378l-4.2-5.5L304,369l-3.5-2.8l-0.7-1.4l1.4-2.8l-2.8-2.1l-2.8-2.8v-4.1h-2.1
			l-2.8-2.8l-2.1-2.8v-2.1l-2.1-4.1v-3.5l0.7-2.1l-2.8-2.8h-1.4l-2.8-2.1l-1.4,2.1v6.2l1.4,2.8l2.8,4.1l0.7,1.4l0.7,0.7v2.1h0.7v2.8
			l1.4,1.4l0.7,2.1l2.8,2.8l0.7,4.8c0.7,2.1,1.4,2.8,2.1,4.8v2.8l2.8,0.7c1.4,2.1,2.1,3.5,2.8,4.8v0.7l-2.8,2.1h-0.7l-0.7-2.8
			l-2.8-3.5l-2.8-2.8l-2.8-2.1l0.7-3.5v-2.8c-2.1-2.1-2.8-2.8-4.9-4.8v1.4l-0.7-1.4l-2.8-2.1l-2.1-4.8l0.7-0.7l2.1,0.7l2.1-2.1
			l0.7-2.8l-3.5-2.8l-2.8-2.1c-1.4-3.5-2.1-7.6-2.8-11l-1.4-4.8v-2.8l-2.1-2.8l-2.1-1.4v-1.4l-2.8-0.7l-1.4-2.1l-3.5-1.4l-0.7-1.4
			v-2.8l-2.8-5.5l-0.7-6.2l0.7-1.4V293l-1.4-4.8l0.7-4.1l-1.4-2.8l2.8-3.5l1.4-3.5v-3.5l2.8-3.5l4.2-8.3l2.1-6.2l0.7-4.1v-2.8
			l0.7-0.7l4.2,2.8v4.8l2.1-1.4l1.4-3.5l0.7-3.5h-0.7l-4.2-6.2l-1.4-2.8L266,233l0.7-4.1l2.1-2.8l-2.8-2.8l1.4-3.5l-1.4-4.1l1.4-2.1
			l-0.7-2.1l-1.4-2.1l2.1-3.5l-1.4-4.1l1.4-4.1l-3.5-3.5l-3.5-1.4l-2.1-2.1l-1.4-5.5c-1.4-1.4-2.8-2.8-3.5-4.1l-2.8-1.4l-2.8-4.1
			l-0.7-2.8l-2.8-0.7l-2.8,2.8h-0.7l-2.8-0.7h-2.8l-1.4-0.7l2.1-2.1l2.1-1.4l-2.8,1.4l-4.9,1.4l-0.7,2.8l-3.5,0.7h-6.3l-2.1,1.4
			h-4.2l-2.1,1.4h-2.8l-0.7-1.4h-7.7l-2.8-1.4l0.7-0.7h5.6l2.8-0.7l2.1,1.4l2.1-0.7l4.2-0.7l1.4-0.7l2.8-0.7l2.8-2.8l2.8-1.4h-2.8
			v-0.7l-2.8,0.7l1.4-2.8l-2.1,0.7l1.4-2.1h-2.8l-0.7-0.7l2.8-2.1l2.1-1.4l0.7-2.1l-2.1,0.7l2.1-4.1l2.8-2.1l1.4-2.1l2.8-1.4
			l2.8-0.7l2.8-1.4l1.4,0.7v1.4l2.8-0.7l-0.7,0.7h2.1l2.1-1.4v-1.4l2.8-0.7l-0.7-0.7l-2.1-0.7l-1.4,0.7l-2.1-1.4v-2.1l1.4-1.4
			l2.1-2.8h2.8l3.5,0.7l0.7,0.7l-2.8,1.4l2.1,2.1l2.1-2.8l0.7-2.1l2.1-2.1l1.4-2.1l0.7-2.1l2.8-0.7l1.4,1.4h2.8l2.8-1.4l2.8-0.7
			l1.4,0.7l3.5,0.7l0.7,0.7h2.1l0.7,2.1l-1.4,2.1h1.4l2.1,1.4h-1.4l1.4,2.1l2.1,0.7l1.4,2.8l2.8,2.1l0.7,1.4l2.8,0.7l1.4,2.1
			c1.4,1.4,2.8,2.1,2.8,2.8l1.4,2.8l1.4,1.4l2.8-0.7h2.8l2.8,1.4l4.2-0.7h2.8v2.1l2.1-0.7l2.1-1.4l1.4,0.7l0.7,3.5l4.2-2.1l-2.1,2.8
			h2.8l1.4-0.7l2.8,0.7l2.8,2.8l4.2,2.8l2.8,1.4h2.8l2.8,2.8l-4.2,1.4l3.5,2.1l7,0.7l2.8-0.7l2.1,2.8l3.5-1.4l-2.1-2.1l2.1-1.4h3.5
			l2.1,1.4l2.1,2.8h2.8l4.2,2.8h4.2l3.5,0.7v-2.8l2.8-0.7l3.5,2.1l-0.7,3.5l2.1-2.8h2.1l2.1-3.5l-2.8-2.8l-2.8-2.1l0.7-4.1l2.8-2.8
			l2.8,0.7l2.8,2.1l2.8,4.1l-2.8,2.1l4.9,1.4v3.5l3.5-2.8l2.8,2.8l-0.7,2.8l2.8,2.8l2.8-2.8l2.1-2.8v-4.1c2.8,0,4.9,0.7,7.7,0.7
			l3.5,2.1l0.7,2.1l-2.1,2.1l1.4,1.4l-0.7,1.4l-3.5,0.7l-3.5-1.4l-0.7,2.1l-2.8,2.8l-0.7,2.1l-2.8,2.8h-4.2l-4.2,1.4v2.8l-3.5,0.7
			l-4.2,2.8l-3.5,4.1l-2.1,3.5l-0.7,4.8l4.9,1.4l1.4,4.1l1.4,2.8l4.9-0.7l7,2.1l3.5,2.1l2.8,2.1l4.2,1.4l3.5,2.1c2.8,0,7,0,9.8,0.7
			v3.5l2.1,4.1l2.8,4.8l6.3,4.1l2.8-2.1l1.4-4.8l-2.8-6.9l-2.8-2.8l5.6-2.8l2.8-2.8l1.4-2.8l-0.7-2.8l-2.8-3.5l-4.2-2.8l2.8-4.1
			l-2.8-3.5l-2.8-6.2l2.1-1.4l5.6,0.7h2.8l2.1-1.4l2.8,1.4l4.2,2.1l1.4,1.4h5.6l1.4,3.5l2.8,4.8l2.8,0.7l2.8,2.8l3.5-2.8l1.4-4.8
			l1.4-2.8c4.9,4.1,9.8,9,15.5,13.1v2.8l4.9,2.1l3.5,2.1h4.9l2.8,1.4l2.8,3.5h2.8l2.1,1.4l2.8,4.8c-0.7,1.4-2.1,2.8-2.8,4.1
			l-4.2,2.8l-2.8,4.1l-4.9,2.1h-7.7l-4.9,0.7l-3.5,0.7l-2.1,3.5l-3.5,2.8l-3.5,6.9l-2.8,4.8l2.8-1.4l4.2-6.9l6.3-4.8l4.9-1.4
			l3.5,2.1l-2.8,3.5l2.8,4.8l2.8,2.8l5.6,2.1l5.6-2.1l2.1-5.5l1.4,2.8l2.8,1.4l-2.8,3.5l-7,4.1l-2.8,2.8l-2.8,3.5h-2.8l-1.4-3.5
			l5.6-4.8l-8.4,2.8l-3.5,1.4l1.4,1.4l-3.5,2.8l-7,4.1l-2.1,2.1l-0.7,0.7l0.7,2.8l2.1,2.8h2.1l-0.7-1.4l1.4,1.4l-2.8,1.4h-2.1
			l-2.8,0.7c-1.4,0.7-2.8,0.7-4.2,0.7l-2.8,2.1l6.3-1.4l1.4,0.7l-5.6,2.1h-2.8v-0.7l-1.4,1.4h1.4l-0.7,3.5l-2.8,4.8l-1.4-1.4H470
			l-2.1-1.4l1.4,2.8l1.4,0.7l0.7,2.1l-0.7,2.1l-2.1,4.1h-0.7l1.4-3.5l-2.8-2.1l-0.7-4.8l-0.7,2.8l1.4,2.8l-2.8-0.7l2.8,1.4l0.7,4.8
			h1.4l0.7,2.1l1.4,4.8l-2.8,3.5l-4.2,2.1l-2.8,2.8l-2.8,1.4l-2.8,2.1l-0.7,2.1l-4.9,3.5l-2.8,2.8l-2.1,2.8v3.5l1.4,3.5l2.1,4.1
			l2.8,3.5v2.8l2.8,6.2v5.5l-2.1,3.5l-1.4,0.7l-2.8-0.7l-0.7-2.8l-2.1-1.4c-2.1-2.8-3.5-5.5-4.9-8.3l-0.7-2.1l1.4-3.5l-1.4-2.8
			l-3.5-4.1h-1.4l-7.7,1.4h-0.7l-2.1-2.1l-2.8-1.4l-6.3,0.7l-4.9-0.7H406l-2.8,0.7l1.4,1.4v2.1l1.4,1.4l-1.4,0.7l-2.1-1.4l-2.1,0.7
			h-3.5l-4.2-3.5l-4.2,0.7l-3.5-0.7h-3.5l-4.2,1.4l-4.9,3.5l-4.9,2.1l-3.5,2.1l-1.4,2.8l-0.7,3.5v2.8l0.7,2.1l-2.8,4.1l-1.4,3.5v6.9
			l-1.4,2.8l0.7,2.8l1.4,2.8l0.7,4.1l2.8,4.1l1.4,2.8l2.1,2.8l5.6,2.1l2.1,2.8l4.9-1.4l4.2-0.7c2.8-0.7,4.9-1.4,7.7-1.4l3.5-2.1
			l1.4-2.8l0.7-4.1l1.4-1.4l3.5-1.4l5.6-1.4h4.9l2.8-0.7l1.4,1.4v2.8l-2.8,2.8l-1.4,2.8l1.4,0.7c-0.7,2.1-2.1,4.1-2.8,6.2l-0.7-2.1
			h-1.4v0.7h1.4v1.4l-1.4,2.8l0.7,0.7l-0.7,2.1l0.7,0.7l-0.7,2.8l-1.4,1.4h-1.4l-1.4,2.1l2.1,1.4l0.7-0.7c0.7,0.7,1.4,0.7,2.1,0.7
			l1.4-0.7h2.1l0.7,0.7h0.7l2.8,0.7h2.8l2.1-0.7l0.7-0.7h1.4l1.4,0.7h1.4l1.4-0.7l2.8,0.7h0.7l2.1,1.4l1.4,1.4l2.1,0.7l1.4,1.4
			l-0.7,0.7v1.4l0.7,2.1l-2.8-0.7l-0.7,2.1v6.9l-0.7,0.7l-0.7,2.8l0.7,1.4h-1.4v1.4l0.7,0.7l1.4,2.8c2.1,2.1,4.2,3.5,6.3,6.2v1.4
			h2.1l0.7-0.7l1.4,1.4l2.8-0.7l2.8-1.4l2.8-1.4l2.1-2.1h2.8v0.7h2.8l2.8,0.7l2.1,1.4l2.1,1.4h2.8l3.5-3.5l2.8-0.7v-2.1l1.4-4.1
			l2.8-2.8l2.8-0.7l0.7-1.4h3.5c2.1-1.4,3.5-2.8,6.3-4.1l2.8-2.8h2.1l1.4,1.4l-2.1,2.1v1.4l-2.8,0.7l2.1,2.8v2.1l-2.1,4.1l2.1,3.5
			l2.8-0.7l1.4-3.5l-1.4-2.1v-3.5l6.3-2.8l-2.1-2.1l2.1-2.1l2.1,3.5h3.5l2.8,2.8v2.1l4.2-0.7l4.9-1.4l2.8,2.1h3.5l2.8-2.1v-1.4
			c3.5-0.7,7.7-1.4,11.3-2.1l-2.8,2.8l2.1,2.8h3.5l3.5,2.1l0.7,3.5l2.8-0.7c1.4,0.7,2.8,1.4,4.9,2.8l2.8,2.8v2.8h2.1l3.5,3.5h4.9
			l0.7-1.4l3.5-1.4l4.2,0.7c1.4,0,2.8,0.7,4.2,0.7l4.2,2.8l0.7,2.1l1.4-0.7l0.7,2.8l2.1,8.3h2.1v3.5l-2.8,4.8l1.4,1.4l7-1.4
			l-1.4,4.8l2.8-4.1l4.2,0.7l5.6,1.4l1.4,2.8v2.8l4.2-2.8h6.3l4.9-2.1l4.2,2.1l2.8,3.5l2.1,0.7l2.8-1.4l0.7,1.4h0v4.1h0.7V504.4z
			 M493.9,411.1l-2.8,0.7h-2.8l-2.8,1.4l-2.8-2.1v-2.1h0.7c2.8,0,5.6,0.7,9.1,0.7l2.1-1.4l-2.8-2.1v-2.1l-2.8-0.7l1.4-1.4h2.8
			l4.2,0.7l0.7-0.7l3.5-0.7l2.8,1.4h1.4l1.4,2.1l2.8-0.7v2.1h2.1l2.8,2.1l-2.1,2.8l-2.8-0.7l-2.8,0.7h-2.1l-0.7,1.4l-2.1,0.7
			l-0.7-3.5l-2.1,0.7l-2.1,3.5l-1.4-0.7v-1.4L493.9,411.1z M467.2,400.1h-2.8l-2.1-1.4l-1.4-2.8H458l-5.6-1.4l-2.1-1.4H444l-2.1-1.4
			l2.1-1.4H439l-3.5,2.8h-2.8l-0.7,1.4l-2.8,0.7l-2.1-0.7l2.8-2.1l1.4-2.1l5.6-2.8l3.5-0.7l1.4-0.7h9.1l4.9,2.1l2.1,2.1l4.9-0.7
			c2.8,2.1,6.3,4.1,9.1,6.2h2.1l2.8,0.7v1.4h3.5l3.5,2.1l-0.7,1.4l-2.8,0.7l-2.8,2.1h-12l2.8-2.8L467.2,400.1z"/>
	</g>
</g>
<g id="Layer_6">
	<path class="st8" d="M267.7,139.2c-5.9-4.8-14.6-4.4-21.7-1.6c-7.1,2.7-13.2,7.5-20,11c-5.6,2.9-11.9,5.3-15.7,10.3
		c-2.9,3.9-4.1,9.3-8.1,12.2c-5.2,3.7-14.5,3-15.8,9.4c-0.6,3.1,1.2,6.2,4.2,7.5c6.3,2.7,12.2-0.3,18.3-0.8c17-1.2,28.8,18,28.9,35
		c0.1,17-7.1,33.2-8.8,50.1c-1.9,18.6,3,37.2,8.8,55c7.2,21.9,16.4,44.1,33.4,59.6c28.2,25.7,71.8,27.9,101.3,52.2
		c10.5,8.7,19.4,20.2,32.3,24.3c8.4,2.7,18.6,2.5,24.1,9.3c4.4,5.5,3.8,13.5,1.5,20.1c-2.3,6.6-6.2,12.7-7.7,19.5
		c-2.4,10.6,0.9,21.9,6.9,31.1s14.2,16.5,22.5,23.6c3.7,3.2,7.5,6.5,9.4,11c5.8,13.9-9,31.2-15.9,42.3
		c-9.1,14.7-19.9,28.4-32.1,40.7c-2.4,2.4-4,5.6-4.1,9c-0.2,5.2,3.1,6.9,6.3,7.7c14.1,3.5,26.8-8.3,37.8-17.8
		c31.4-27,71.7-42.3,102.2-70.4c10.8-10,20.2-21.4,29.5-32.8c12.6-15.4,25.2-30.7,37.8-46.1c5.4-6.6,11.1-15.9,6.3-23
		c-4-5.9-12.6-5.9-19.7-4.7s-15.1,2.6-20.6-1.9c-3.9-3.1-5.3-8.3-8.3-12.3c-6.8-9-19.6-10-30.4-13.3c-21.5-6.5-40.1-24.8-62.5-22.8
		c-12.9,1.2-24.1,9.1-36.3,13.4c-6.5,2.3-26,8.1-32.2,3.2c-3-2.4-3.2-8.5-2.6-14.9c0.9-8.7-6.5-16-15.2-15.2h0
		c-3.8,0.4-6.7-3.4-5.4-7c0.8-2.2,1.5-4.5,2-6.8c1.6-7-5.8-12.8-12.1-9.3c0,0-0.1,0-0.1,0.1c-4.2,2.4-7.8,5.9-12.3,7.5
		c-10.8,4-23.6-5-25.7-16.4c-2.1-11.4,4.8-23.1,14.5-29.3c10.7-6.9,24.2-8.2,36.8-7.3c2.4,0.2,4.7,0.7,6.8,1.9
		c8,4.3,5.5,11.4,6.1,17.8c0.8,9.5,12.4,17.8,20.3,12.5c5.6-3.7,6.4-11.6,5.7-18.2c-0.7-6.7-2.4-13.6,0.1-19.9
		c3.4-8.6,13.3-12.6,19.3-19.7c7.2-8.4,8.3-20.5,14.6-29.7c10.6-15.4,31.9-17.9,48.5-26.6c3-1.5,5.9-3.4,7.6-6.3
		c2.6-4.5,1.4-10.4-1.6-14.7c-2.6-3.7-6.4-6.5-10.2-9c-10.8-7.1-21.8-13.9-33-20.5c-16.2-9.6-33.7-20.8-53-20.6
		c-1.7,0-3.3,0.7-4.3,2c-2.8,3.6,1.5,7.8,3,11.9c2.1,6-2.7,12.6-8.7,14.8c-7.5,2.7-15.9,0.4-23.5-0.7c-4.9-0.7-9.7-2-14.2-3.9
		c-4.5-1.9-10.1-4.5-9.6-11.1c0.3-3.1,1.9-6,4.2-8.1c5.1-4.7,12.1-5.8,17.9-9.3c5-3,9.2-8.8,7.3-14.2c-7.4-0.1-14.8-2.2-21.2-6.1
		c-3.3-2-6.9-4.6-10.6-3.7c-2.6,0.6-4.5,2.8-6.6,4.4c-9,7.1-22.1,5.2-32.8,1c-14.3-5.5-27.3-7-41.6-10.8
		C276.5,160.3,277.6,147.1,267.7,139.2z"/>
	<path class="st9" d="M520.3,131.2c-5.1-1.6-9.8-4.2-13.9-7.5c-5.3-4.3-9.6-10-15.6-13c-7.7-3.8-17.2-2.7-25,1
		c-7.8,3.7-14.2,9.7-20.3,15.8c-2.2,2.1-4.4,4.4-5.4,7.3s-0.3,6.6,2.4,8.1c1.7,1,3.8,0.9,5.8,0.9c8.4,0,16.7,2.6,23.7,7.4
		c9.2,6.3,15.5,15.9,22.3,24.8c6.8,8.8,15,17.5,25.7,20.5c4,1.1,8.8,1.2,11.8-1.7c2.8-2.7,3-7,3.1-10.8c0.1-7.9,0.3-15.8,0.4-23.8
		c0.1-6.1,0.1-12.4-2.8-17.7c-3.1-5.6-8.8-9-14.4-12.2"/>
	<path class="st9" d="M596,140c-3.1,2.5-24.4,10-25,14c-0.6,4.1,2.3,8,5.7,10.3c3.4,2.3,16.2,35.1,28.3,34.9
		c6.9-0.1,23.3-13.5,28.1-18.5c2.1-2.2,4.3-4.5,5.3-7.3"/>
	<path class="st9" d="M646.6,199.2c-6.2,5.6-8.2,14.6-7.4,22.9s3.9,16.1,6.7,23.9c10.4,29.2,15.9,60.2,16.3,91.2
		c0.2,16.8-1.2,33.6,0.7,50.3c1,8.6,3.5,18,11,22.3c8.2,4.6,19.1,0.6,25.1-6.6c3.6-4.2,8.3-9.4,12.1-14.7"/>
</g>
</svg>
