<svg xmlns="http://www.w3.org/2000/svg" xmlns:xlink="http://www.w3.org/1999/xlink" viewBox="0 0 102.6 102.6"><defs><style>.cls-1{fill:none;}.cls-2{clip-path:url(#clip-path);}.cls-3{fill:#415365;}</style><clipPath id="clip-path"><rect class="cls-1" width="102.6" height="102.6"/></clipPath></defs><title>semanas</title><g id="Capa_2" data-name="Capa 2"><g id="Capa_1-2" data-name="Capa 1"><g class="cls-2"><path class="cls-3" d="M51.3,4.72A46.58,46.58,0,1,0,97.88,51.3,46.63,46.63,0,0,0,51.3,4.72m0,97.88a51.3,51.3,0,1,1,51.3-51.3,51.35,51.35,0,0,1-51.3,51.3"/><path class="cls-3" d="M51.53,11.37a40,40,0,1,0,40,40,40,40,0,0,0-40-40m0,84.73A44.73,44.73,0,1,1,96.26,51.37,44.78,44.78,0,0,1,51.53,96.1"/><path class="cls-3" d="M54.76,83.79a3.24,3.24,0,0,1-3.23-3.24V69H34a3.25,3.25,0,0,1-2.74-1.51A3.22,3.22,0,0,1,31,64.34l20.8-43.77A3.24,3.24,0,0,1,58,22V62.49h5.61a3.24,3.24,0,0,1,0,6.47H58V80.55a3.24,3.24,0,0,1-3.24,3.24M39.07,62.49H51.53V36.29Z"/></g></g></g></svg>