<svg xmlns="http://www.w3.org/2000/svg" xmlns:xlink="http://www.w3.org/1999/xlink" viewBox="0 0 103.49 103.46"><defs><style>.cls-1{fill:none;}.cls-2{clip-path:url(#clip-path);}.cls-3{fill:#415365;}</style><clipPath id="clip-path"><rect class="cls-1" width="103.49" height="103.46"/></clipPath></defs><title>servicio</title><g id="Capa_2" data-name="Capa 2"><g id="Capa_1-2" data-name="Capa 1"><g class="cls-2"><path class="cls-3" d="M51.75,103.46A51.76,51.76,0,0,1,26.14,6.73a2.38,2.38,0,0,1,2.36,4.14,47,47,0,1,0,46.5,0,2.38,2.38,0,1,1,2.35-4.14,51.76,51.76,0,0,1-25.6,96.73"/><path class="cls-3" d="M52,96.9a45.12,45.12,0,0,1-25.9-82.07,2.38,2.38,0,1,1,2.74,3.9,40.35,40.35,0,1,0,45.72-.41,2.38,2.38,0,1,1,2.67-4A45.12,45.12,0,0,1,52,96.9"/><path class="cls-3" d="M75.18,77.09a3.93,3.93,0,1,1-7.85,0V73.67h7.85Z"/><polygon class="cls-3" points="64.82 91.06 53.67 93.74 53.68 79.35 49.94 79.35 49.94 93.74 38.76 91.06 38.76 72.11 64.82 72.11 64.82 91.06"/><path class="cls-3" d="M36.16,75.53a3.92,3.92,0,1,1-7.84,0V72.11h7.84Z"/><path class="cls-3" d="M51.75,0A10.14,10.14,0,1,1,41.61,10.14,10.13,10.13,0,0,1,51.75,0"/><path class="cls-3" d="M63.56,22.76H40.27A12.49,12.49,0,0,0,30,28.36H73.53a11.71,11.71,0,0,0-10-5.6"/><path class="cls-3" d="M24.94,64.78H78.55V35.52H24.94Zm55.45,3.66H23.11a1.83,1.83,0,0,1-1.83-1.83V33.69a1.83,1.83,0,0,1,1.83-1.83H80.39a1.83,1.83,0,0,1,1.83,1.83V66.61a1.83,1.83,0,0,1-1.83,1.83"/><path class="cls-3" d="M58.64,43H44.85a1.84,1.84,0,0,1,0-3.67H58.64a1.84,1.84,0,1,1,0,3.67"/><path class="cls-3" d="M61.78,48.51H41.72a1.84,1.84,0,1,1,0-3.67H61.78a1.84,1.84,0,0,1,0,3.67"/><path class="cls-3" d="M61.78,54H41.72a1.84,1.84,0,1,1,0-3.67H61.78a1.84,1.84,0,0,1,0,3.67"/><path class="cls-3" d="M57.82,59.53H45.67a1.83,1.83,0,1,1,0-3.66H57.82a1.83,1.83,0,0,1,0,3.66"/><path class="cls-3" d="M51.75,62.25a1.83,1.83,0,0,1-1.84-1.83v-21a1.84,1.84,0,0,1,3.67,0v21a1.83,1.83,0,0,1-1.83,1.83"/></g></g></g></svg>