<svg xmlns="http://www.w3.org/2000/svg" xmlns:xlink="http://www.w3.org/1999/xlink" viewBox="0 0 78.95 78.95"><defs><style>.cls-1,.cls-4,.cls-5{fill:none;}.cls-2{clip-path:url(#clip-path);}.cls-3{fill:#fff;}.cls-4,.cls-5{stroke:#fff;stroke-width:2.48px;}.cls-4{stroke-linejoin:round;}.cls-5{stroke-miterlimit:10;}</style><clipPath id="clip-path" transform="translate(0 -0.06)"><rect class="cls-1" x="0.02" width="78.99" height="78.99"/></clipPath></defs><title>Paises</title><g id="Capa_2" data-name="Capa 2"><g id="Capa_1-2" data-name="Capa 1"><g class="cls-2"><path class="cls-3" d="M39.48,3.7A35.84,35.84,0,1,0,75.31,39.54,35.87,35.87,0,0,0,39.48,3.7m0,75.31A39.48,39.48,0,1,1,79,39.54,39.51,39.51,0,0,1,39.48,79" transform="translate(0 -0.06)"/><path class="cls-3" d="M39.65,5.18A34.42,34.42,0,1,0,74.07,39.6,34.46,34.46,0,0,0,39.65,5.18m0,66.25a32,32,0,1,1,32-32,32,32,0,0,1-32,32" transform="translate(0 -0.06)"/><path class="cls-4" d="M27.31,14.19A2.27,2.27,0,0,0,25.09,14a21.31,21.31,0,0,0-2,1.13,4.29,4.29,0,0,0-1.6,1c-.3.39-.42.94-.83,1.24s-1.48.3-1.61,1a.7.7,0,0,0,.43.76c.64.28,1.24,0,1.86-.08,1.74-.12,2.94,1.83,3,3.57s-.72,3.38-.9,5.1a13.87,13.87,0,0,0,.9,5.61,13.78,13.78,0,0,0,3.4,6.07C30.54,42.05,35,42.28,38,44.76c1.07.88,2,2.05,3.29,2.47.86.28,1.9.26,2.46,1a2.21,2.21,0,0,1,.15,2,20.09,20.09,0,0,0-.79,2,4.25,4.25,0,0,0,.71,3.17,11.84,11.84,0,0,0,2.29,2.4,3.21,3.21,0,0,1,1,1.12c.59,1.42-.92,3.18-1.62,4.31a23.44,23.44,0,0,1-3.27,4.15,1.36,1.36,0,0,0-.42.92.72.72,0,0,0,.64.78c1.44.36,2.73-.84,3.85-1.81,3.2-2.75,7.31-4.31,10.42-7.18a31.85,31.85,0,0,0,3-3.34L63.52,52c.55-.67,1.13-1.62.64-2.34s-1.28-.6-2-.48A2.67,2.67,0,0,1,60.05,49c-.39-.32-.53-.85-.84-1.26-.69-.92-2-1-3.1-1.35-2.19-.67-4.09-2.53-6.37-2.33-1.32.12-2.46.93-3.7,1.37-.66.23-2.65.82-3.28.32-.31-.24-.33-.86-.27-1.51a1.42,1.42,0,0,0-1.55-1.55.54.54,0,0,1-.55-.72,5.49,5.49,0,0,0,.21-.69.86.86,0,0,0-1.24-1h0a8.08,8.08,0,0,1-1.25.77,2.13,2.13,0,0,1-2.62-1.67,3.07,3.07,0,0,1,1.48-3,6.14,6.14,0,0,1,3.75-.75,1.83,1.83,0,0,1,.69.2c.82.44.56,1.16.62,1.81.09,1,1.27,1.82,2.07,1.28a1.94,1.94,0,0,0,.58-1.86,4.35,4.35,0,0,1,0-2c.35-.87,1.36-1.28,2-2s.85-2.09,1.49-3c1.08-1.57,3.25-1.83,4.94-2.71a1.84,1.84,0,0,0,.78-.65,1.44,1.44,0,0,0-.16-1.49,3.81,3.81,0,0,0-1-.92c-1.11-.72-2.23-1.42-3.37-2.09-1.65-1-3.43-2.12-5.4-2.1a.56.56,0,0,0-.44.2c-.28.37.15.8.31,1.22a1.31,1.31,0,0,1-.89,1.51,5,5,0,0,1-2.4-.08A5.9,5.9,0,0,1,39,22.6c-.46-.2-1-.46-1-1.14a1.27,1.27,0,0,1,.43-.82,10.15,10.15,0,0,1,1.82-.95,1.34,1.34,0,0,0,.75-1.45,4.23,4.23,0,0,1-2.16-.62c-.34-.2-.71-.47-1.09-.37a2,2,0,0,0-.67.44,3.44,3.44,0,0,1-3.34.11,36.8,36.8,0,0,0-4.24-1.11C28.2,16.34,28.32,15,27.31,14.19Z" transform="translate(0 -0.06)"/><path class="cls-5" d="M53.05,13.37a4.27,4.27,0,0,1-1.41-.76,9.93,9.93,0,0,0-1.59-1.33,3,3,0,0,0-2.55.1A7.54,7.54,0,0,0,45.43,13a1.82,1.82,0,0,0-.55.74.71.71,0,0,0,.24.83,1.18,1.18,0,0,0,.59.09,4.27,4.27,0,0,1,2.42.75,10.58,10.58,0,0,1,2.27,2.53A5.45,5.45,0,0,0,53,20a1.24,1.24,0,0,0,1.2-.18,1.5,1.5,0,0,0,.32-1.1c0-.8,0-1.61,0-2.42a3.68,3.68,0,0,0-.28-1.81,3.64,3.64,0,0,0-1.47-1.24" transform="translate(0 -0.06)"/><path class="cls-5" d="M60.77,14.27c-.32.25-2.49,1-2.55,1.43a1.17,1.17,0,0,0,.58,1.05c.35.23,1.65,3.57,2.89,3.55.7,0,2.37-1.37,2.86-1.88a2.31,2.31,0,0,0,.54-.75" transform="translate(0 -0.06)"/><path class="cls-5" d="M65.93,20.3a2.76,2.76,0,0,0-.76,2.34,10.34,10.34,0,0,0,.68,2.43,29.2,29.2,0,0,1,1.67,9.3,48.78,48.78,0,0,0,.07,5.13,2.85,2.85,0,0,0,1.12,2.27,2.15,2.15,0,0,0,2.56-.67c.36-.43.84-1,1.23-1.5" transform="translate(0 -0.06)"/></g></g></g></svg>