<svg xmlns="http://www.w3.org/2000/svg" xmlns:xlink="http://www.w3.org/1999/xlink" viewBox="0 0 79.01 78.91"><defs><style>.cls-1{fill:none;}.cls-2{clip-path:url(#clip-path);}.cls-3{fill:#fff;}</style><clipPath id="clip-path" transform="translate(0 -0.08)"><rect class="cls-1" x="0.02" width="78.99" height="78.99"/></clipPath></defs><title>90-grados</title><g id="Capa_2" data-name="Capa 2"><g id="Capa_1-2" data-name="Capa 1"><g class="cls-2"><path class="cls-3" d="M39.64,79A39.64,39.64,0,0,1,34.07.1a1.82,1.82,0,1,1,.51,3.61A36,36,0,1,0,75.12,45.38a1.82,1.82,0,1,1,3.6.6A39.48,39.48,0,0,1,39.64,79" transform="translate(0 -0.08)"/><path class="cls-3" d="M39.81,73.92a34.57,34.57,0,0,1-6-68.61,1.83,1.83,0,0,1,.62,3.6,30.91,30.91,0,1,0,35.66,36.6,1.82,1.82,0,1,1,3.57.72A34.66,34.66,0,0,1,39.81,73.92" transform="translate(0 -0.08)"/><path class="cls-3" d="M41.07,39.76A1.74,1.74,0,0,1,39.32,38L39.21,1.9a1.75,1.75,0,1,1,3.5,0l.11,34.37,34.37-.12a1.75,1.75,0,0,1,0,3.49Z" transform="translate(0 -0.08)"/><path class="cls-3" d="M53,8.27v1.1c0,1,.58,1.24,1.23,1.24a4.89,4.89,0,0,0,2.14-.46V8.26c0-1.16-.38-1.54-1.68-1.54S53,7.2,53,8.27m7,.15,0,6.08c0,4.52-3,5.72-7.63,5.73A17.44,17.44,0,0,1,49.9,20l.2-2.95a16.79,16.79,0,0,0,1.74.12c3.24,0,4.56-.61,4.56-2.68V13.31a9.1,9.1,0,0,1-2.75.39c-2.79,0-4.22-1.18-4.23-4.18V8.45c0-2.5,1-4.81,5.27-4.83S60,5.8,60,8.42" transform="translate(0 -0.08)"/><path class="cls-3" d="M65.19,15.28c0,1.24.36,1.77,1.93,1.76S69,16.51,69,15.27l0-6.78c0-1.24-.35-1.76-1.92-1.76s-1.92.53-1.92,1.77Zm7.43.48c0,2.49-1.28,4.41-5.49,4.43s-5.52-1.9-5.53-4.39l0-7.79c0-2.5,1.29-4.41,5.5-4.43S72.59,5.48,72.6,8Z" transform="translate(0 -0.08)"/><path class="cls-3" d="M76.16,2a1,1,0,1,0,1,1,1,1,0,0,0-1-1m0,3.85A2.86,2.86,0,1,1,79,3a2.86,2.86,0,0,1-2.84,2.86" transform="translate(0 -0.08)"/><path class="cls-3" d="M57,39.71A1.74,1.74,0,0,1,55.22,38,14.17,14.17,0,0,0,41,23.87a1.74,1.74,0,1,1,0-3.48A17.65,17.65,0,0,1,58.71,38,1.75,1.75,0,0,1,57,39.71" transform="translate(0 -0.08)"/></g></g></g></svg>