<svg xmlns="http://www.w3.org/2000/svg" xmlns:xlink="http://www.w3.org/1999/xlink" viewBox="0 0 115.94 104.79"><defs><style>.cls-1{fill:none;}.cls-2{clip-path:url(#clip-path);}.cls-3{fill:#415365;}</style><clipPath id="clip-path" transform="translate(0)"><rect class="cls-1" width="115.95" height="104.79"/></clipPath></defs><title>exito</title><g id="Capa_2" data-name="Capa 2"><g id="Capa_1-2" data-name="Capa 1"><g class="cls-2"><path class="cls-3" d="M52.4,104.79a52.41,52.41,0,0,0,51.13-63.88A2.41,2.41,0,1,0,98.82,42,47.61,47.61,0,0,1,52.4,100,47.58,47.58,0,1,1,88,20.87a2.41,2.41,0,1,0,3.61-3.2A52.4,52.4,0,1,0,52.4,104.79" transform="translate(0)"/><path class="cls-3" d="M52.4,98.08A45.73,45.73,0,0,0,98.08,52.4a46.25,46.25,0,0,0-.3-5.29,2.41,2.41,0,1,0-4.79.56A40.86,40.86,0,1,1,82.67,25a2.41,2.41,0,1,0,3.58-3.24A45.69,45.69,0,1,0,52.4,98.08" transform="translate(0)"/><path class="cls-3" d="M110.31,20.4A318.61,318.61,0,0,0,50.06,80.6L26.85,52.53,30.3,49,49.15,64.33a2.43,2.43,0,0,0,3.27-.2C67.85,48,85.61,34.22,109.79,19.57ZM50.14,86.9h.06a2.43,2.43,0,0,0,1.87-1,314.28,314.28,0,0,1,62.91-63,2.44,2.44,0,0,0,.6-3.22l-3-4.72a2.42,2.42,0,0,0-3.29-.78c-24.79,14.85-43,28.79-58.85,45L31.63,43.84a2.4,2.4,0,0,0-3.25.19l-6.49,6.69a2.41,2.41,0,0,0-.13,3.22L48.28,86a2.4,2.4,0,0,0,1.86.88" transform="translate(0)"/></g></g></g></svg>